<svg width="932" height="568" viewBox="0 0 932 568" fill="none" xmlns="http://www.w3.org/2000/svg">
<g clip-path="url(#clip0_5_649)">
<path d="M39.3768 518.226C43.2999 519.605 47.5121 519.951 51.6076 519.23C55.703 518.508 59.5436 516.744 62.7595 514.108C70.9492 507.233 73.5175 495.912 75.6062 485.426L81.7859 454.409L68.8482 463.318C59.5435 469.724 50.0299 476.336 43.5881 485.615C37.1462 494.895 34.3359 507.562 39.5102 517.603" fill="#47CF7D"/>
<path d="M41.3745 557.937C39.7462 546.073 38.0707 534.056 39.2157 522.065C40.2304 511.416 43.4794 501.016 50.094 492.486C53.605 487.967 57.8773 484.096 62.7187 481.046C63.9808 480.249 65.1428 482.249 63.886 483.043C55.5088 488.337 49.0293 496.154 45.3815 505.368C41.353 515.614 40.7061 526.784 41.4 537.668C41.8194 544.251 42.7107 550.79 43.6059 557.321C43.6766 557.616 43.6324 557.927 43.4824 558.192C43.3324 558.456 43.0878 558.653 42.7979 558.743C42.5022 558.823 42.1869 558.783 41.9206 558.632C41.6543 558.48 41.4584 558.23 41.3754 557.935L41.3745 557.937Z" fill="#F47059"/>
<path d="M53.0957 538.9C54.778 541.458 57.0908 543.54 59.8111 544.944C62.5314 546.349 65.5676 547.029 68.6271 546.919C76.4915 546.546 83.0452 541.059 88.9442 535.849L106.396 520.44L94.8464 519.887C86.5402 519.489 78.0197 519.116 70.1082 521.681C62.1968 524.245 54.9007 530.407 53.4542 538.596" fill="#47CF7D"/>
<path d="M36.7718 564.757C44.6115 550.885 53.7041 535.469 69.9526 530.541C74.47 529.176 79.2069 528.687 83.908 529.1C85.3899 529.228 85.0198 531.512 83.541 531.385C75.6606 530.731 67.7953 532.811 61.2694 537.277C54.9894 541.552 50.0996 547.495 45.9616 553.796C43.4265 557.657 41.1558 561.681 38.8851 565.699C38.1596 566.984 36.0378 566.056 36.7718 564.757Z" fill="#F47059"/>
<path d="M823.618 17.7754H175.252V325.436H823.618V17.7754Z" fill="#E6E6E6"/>
<path d="M805.079 44.1578H193.792V300.849H805.079V44.1578Z" fill="white"/>
<path d="M823.342 0H174.976V27.5445H823.342V0Z" fill="#F47059"/>
<path d="M195.445 17.8459C198.265 17.8459 200.55 15.5602 200.55 12.7406C200.55 9.92108 198.265 7.63538 195.445 7.63538C192.626 7.63538 190.34 9.92108 190.34 12.7406C190.34 15.5602 192.626 17.8459 195.445 17.8459Z" fill="white"/>
<path d="M214.823 17.8459C217.643 17.8459 219.928 15.5602 219.928 12.7406C219.928 9.92108 217.643 7.63538 214.823 7.63538C212.003 7.63538 209.718 9.92108 209.718 12.7406C209.718 15.5602 212.003 17.8459 214.823 17.8459Z" fill="white"/>
<path d="M234.201 17.8459C237.021 17.8459 239.307 15.5602 239.307 12.7406C239.307 9.92108 237.021 7.63538 234.201 7.63538C231.382 7.63538 229.096 9.92108 229.096 12.7406C229.096 15.5602 231.382 17.8459 234.201 17.8459Z" fill="white"/>
<path d="M338.167 240.79H647.118V187.837C647.071 182.253 645.909 176.735 643.701 171.606C641.492 166.478 638.282 161.842 634.258 157.971L634.174 157.889C628.656 152.352 610.214 138.3 591.134 139.492C581.055 140.119 572.426 144.977 565.487 153.929C543.888 181.807 515.515 172.397 500.525 164.306C487.314 157.175 473.823 153.828 460.423 154.361C441.656 155.094 415.241 162.008 395.977 190.778C388.619 201.757 372.618 216.661 338.167 225.42V240.79Z" fill="#E4E4E4"/>
<path d="M664.599 242.021H338.762C338.491 242.021 338.232 241.914 338.041 241.722C337.85 241.531 337.742 241.272 337.742 241.001V84.828C337.742 84.5575 337.85 84.2981 338.041 84.1069C338.232 83.9157 338.491 83.8082 338.762 83.8082C339.032 83.8082 339.292 83.9157 339.483 84.1069C339.674 84.2981 339.782 84.5575 339.782 84.828V239.982H664.599C664.869 239.982 665.128 240.089 665.32 240.28C665.511 240.472 665.618 240.731 665.618 241.001C665.618 241.272 665.511 241.531 665.32 241.723C665.128 241.914 664.869 242.021 664.599 242.021Z" fill="#3F3D56"/>
<path d="M400.741 181.964H398.741V240.586H400.741V181.964Z" fill="#3F3D56"/>
<path d="M460.618 154.586H458.618V240.586H460.618V154.586Z" fill="#3F3D56"/>
<path d="M520.618 172.586H518.618V240.586H520.618V172.586Z" fill="#3F3D56"/>
<path d="M580.618 139.586H578.618V240.586H580.618V139.586Z" fill="#3F3D56"/>
<path d="M640.618 162.586H638.618V240.586H640.618V162.586Z" fill="#3F3D56"/>
<path d="M459.741 162.083C463.12 162.083 465.86 159.344 465.86 155.965C465.86 152.586 463.12 149.846 459.741 149.846C456.362 149.846 453.623 152.586 453.623 155.965C453.623 159.344 456.362 162.083 459.741 162.083Z" fill="#F47059"/>
<path d="M579.741 146.083C583.12 146.083 585.86 143.344 585.86 139.965C585.86 136.586 583.12 133.846 579.741 133.846C576.362 133.846 573.623 136.586 573.623 139.965C573.623 143.344 576.362 146.083 579.741 146.083Z" fill="#F47059"/>
<path d="M519.741 179.083C523.12 179.083 525.86 176.344 525.86 172.965C525.86 169.586 523.12 166.846 519.741 166.846C516.362 166.846 513.623 169.586 513.623 172.965C513.623 176.344 516.362 179.083 519.741 179.083Z" fill="#F47059"/>
<path d="M399.741 188.083C403.12 188.083 405.86 185.344 405.86 181.965C405.86 178.586 403.12 175.846 399.741 175.846C396.362 175.846 393.623 178.586 393.623 181.965C393.623 185.344 396.362 188.083 399.741 188.083Z" fill="#F47059"/>
<path d="M639.741 168.083C643.12 168.083 645.86 165.344 645.86 161.965C645.86 158.586 643.12 155.846 639.741 155.846C636.362 155.846 633.623 158.586 633.623 161.965C633.623 165.344 636.362 168.083 639.741 168.083Z" fill="#F47059"/>
<path d="M136.913 555.469H149.173L155.005 508.181L136.911 508.182L136.913 555.469Z" fill="#FFB6B6"/>
<path d="M133.786 551.467L157.93 551.466H157.931C162.011 551.466 165.925 553.087 168.81 555.973C171.696 558.858 173.317 562.771 173.317 566.852V567.352L133.786 567.354L133.786 551.467Z" fill="#2F2E41"/>
<path d="M194.913 555.469H207.173L213.005 508.181L194.911 508.182L194.913 555.469Z" fill="#FFB6B6"/>
<path d="M191.786 551.467L215.93 551.466H215.931C220.011 551.466 223.925 553.087 226.81 555.973C229.696 558.858 231.317 562.771 231.317 566.852V567.352L191.786 567.354L191.786 551.467Z" fill="#2F2E41"/>
<path d="M217.793 339.284C218.829 338.104 219.594 336.711 220.034 335.204C220.473 333.696 220.577 332.11 220.337 330.558C220.098 329.006 219.521 327.525 218.647 326.22C217.774 324.915 216.624 323.817 215.281 323.005L195.329 227.216L173.593 235.779L200.04 327.244C198.824 329.592 198.511 332.304 199.162 334.867C199.812 337.43 201.38 339.666 203.568 341.15C205.757 342.634 208.413 343.264 211.035 342.92C213.657 342.576 216.061 341.283 217.793 339.285V339.284Z" fill="#FFB6B6"/>
<path d="M123.765 320.838L114.728 330.011C114.728 330.011 105.04 365.514 123.579 409.3L135.979 536.25L158.289 537.93L164.949 390.234L195.679 439.26L190.311 537.405L214.973 536.838L226.118 428.086L195.679 314.602L123.765 320.838Z" fill="#2F2E41"/>
<path d="M155.361 333.195C141.753 333.101 128.164 332.203 114.662 330.507L114.119 330.435L127.585 271.249L122.948 195.098L166.736 193.598C170.7 193.455 174.577 194.78 177.623 197.32C180.67 199.861 182.67 203.437 183.241 207.362L192.203 268.117L200.493 322.02L200.382 322.182C194.424 330.917 174.506 333.195 155.361 333.195Z" fill="#F47059"/>
<path d="M162.752 206.193L171.649 195.04C171.649 195.04 187.246 184.374 192.182 207.23C197.118 230.086 206.289 267.19 206.289 267.19L175.791 269.66L162.752 206.193Z" fill="#F47059"/>
<path d="M78.4431 340.284C77.4069 339.104 76.6421 337.711 76.2024 336.204C75.7628 334.696 75.6591 333.11 75.8986 331.558C76.1382 330.006 76.7151 328.525 77.5888 327.22C78.4625 325.915 79.6117 324.817 80.9555 324.005L100.907 228.216L122.643 236.779L96.1965 328.244C97.4124 330.592 97.7248 333.304 97.0745 335.867C96.4241 338.43 94.8562 340.666 92.6679 342.15C90.4795 343.634 87.8228 344.264 85.2011 343.92C82.5794 343.576 80.1749 342.283 78.4431 340.285V340.284Z" fill="#FFB6B6"/>
<path d="M133.484 207.193L124.587 196.04C124.587 196.04 108.99 185.374 104.054 208.23C99.118 231.086 89.9468 268.19 89.9468 268.19L120.445 270.66L133.484 207.193Z" fill="#F47059"/>
<path d="M170.979 182.461H112.979C111.785 182.46 110.642 181.986 109.798 181.142C108.954 180.298 108.48 179.154 108.479 177.961V152.961C108.479 144.077 112.008 135.556 118.29 129.273C124.573 122.991 133.094 119.461 141.979 119.461C150.863 119.461 159.384 122.991 165.667 129.273C171.949 135.556 175.479 144.077 175.479 152.961V177.961C175.477 179.154 175.003 180.298 174.159 181.142C173.315 181.986 172.172 182.46 170.979 182.461V182.461Z" fill="#2F2E41"/>
<path d="M148.382 180.956C161.947 180.956 172.943 169.959 172.943 156.395C172.943 142.83 161.947 131.833 148.382 131.833C134.817 131.833 123.821 142.83 123.821 156.395C123.821 169.959 134.817 180.956 148.382 180.956Z" fill="#FFB6B6"/>
<path d="M183.404 155.461H147.938L147.574 150.37L145.756 155.461H140.295L139.574 145.37L135.97 155.461H125.404V154.961C125.412 147.936 128.206 141.2 133.174 136.232C138.142 131.264 144.878 128.469 151.904 128.461H156.904C163.93 128.469 170.665 131.264 175.633 136.232C180.601 141.2 183.396 147.936 183.404 154.961V155.461Z" fill="#2F2E41"/>
<path d="M147.648 187.128C147.381 187.128 147.114 187.104 146.851 187.058L120.882 182.476V139.556H149.469L148.761 140.381C138.914 151.865 146.333 170.488 151.632 180.566C152.022 181.304 152.196 182.137 152.134 182.97C152.072 183.803 151.775 184.601 151.279 185.273C150.864 185.847 150.318 186.315 149.687 186.637C149.055 186.96 148.357 187.128 147.648 187.128Z" fill="#2F2E41"/>
<path d="M864.323 555.469H852.064L846.231 508.181L864.326 508.182L864.323 555.469Z" fill="#9E616A"/>
<path d="M867.45 567.354L827.919 567.352V566.852C827.92 562.771 829.541 558.858 832.426 555.973C835.312 553.087 839.225 551.466 843.306 551.466H843.307L867.451 551.467L867.45 567.354Z" fill="#2F2E41"/>
<path d="M820.323 555.469H808.064L802.231 508.181L820.326 508.182L820.323 555.469Z" fill="#9E616A"/>
<path d="M823.45 567.354L783.919 567.352V566.852C783.92 562.771 785.541 558.858 788.426 555.973C791.312 553.087 795.225 551.466 799.306 551.466H799.307L823.451 551.467L823.45 567.354Z" fill="#2F2E41"/>
<path d="M677.538 224.113C678.518 225.461 679.781 226.577 681.239 227.384C682.697 228.19 684.314 228.667 685.976 228.781C687.638 228.895 689.305 228.643 690.859 228.043C692.414 227.443 693.818 226.509 694.972 225.308L719.231 234.781L728.583 221.443L694.137 208.547C691.991 206.741 689.256 205.785 686.452 205.861C683.648 205.937 680.969 207.038 678.923 208.957C676.877 210.876 675.606 213.479 675.351 216.272C675.095 219.065 675.874 221.855 677.538 224.113V224.113Z" fill="#9E616A"/>
<path d="M820.169 304.925L788.229 315.344L798.899 541.54L823.549 542.15L836.164 382.633L839.029 541.52L869.508 543.2L880.744 304.925H820.169Z" fill="#2F2E41"/>
<path d="M798.618 171.586L880.593 153.775L889.709 224.36L882.118 258.086L885.159 309.34C885.159 309.34 820.34 341.601 788.229 315.344C788.229 315.344 814.038 247.554 799.078 215.82L798.618 171.586Z" fill="#3F3D56"/>
<path d="M812.815 181.57L798.618 171.586C798.618 171.586 797.779 170.425 785.949 184.255C774.118 198.086 750.118 220.086 750.118 220.086L710.118 205.086L702.831 232.011L749.319 253.675L815.135 209.72L812.815 181.57Z" fill="#3F3D56"/>
<path d="M885.173 335.799C886.68 335.087 888.012 334.054 889.076 332.772C890.139 331.49 890.909 329.99 891.331 328.378C891.752 326.766 891.815 325.081 891.515 323.443C891.216 321.804 890.56 320.251 889.595 318.892L903.421 296.823L892.059 285.15L872.971 316.59C870.797 318.363 869.349 320.871 868.901 323.64C868.453 326.409 869.036 329.246 870.54 331.614C872.044 333.982 874.365 335.716 877.062 336.487C879.758 337.258 882.645 337.013 885.173 335.799V335.799Z" fill="#9E616A"/>
<path d="M867.807 167.68L880.593 153.775C880.593 153.775 894.839 148.814 906.479 174.45C918.118 200.086 931.118 252.086 931.118 252.086L900.723 310.633L877.118 300.086L900.723 251.673L875.744 215.82L867.807 167.68Z" fill="#3F3D56"/>
<path d="M846.126 147.986C859.021 140.937 863.76 124.769 856.711 111.874C849.662 98.979 833.495 94.2399 820.6 101.289C807.705 108.338 802.966 124.506 810.015 137.401C817.064 150.296 833.232 155.035 846.126 147.986Z" fill="#9E616A"/>
<path d="M858.39 103.364L859.68 100.768L853.189 97.5431C853.189 97.5431 846.028 85.8921 833.071 89.1663C820.113 92.4405 814.284 94.4 814.284 94.4L807.809 97.6578L811.059 100.891L805.229 102.851L809.124 104.786L804.592 107.39L807.032 120.742C807.032 120.742 811.083 110.615 818.872 114.485C826.661 118.355 840.909 112.485 840.909 112.485L853.287 136.44C853.287 136.44 855.84 128.042 860.393 130.281C860.393 130.281 872.025 111.758 858.39 103.364Z" fill="#2F2E41"/>
<path d="M300 567.586H1C0.734784 567.586 0.480429 567.481 0.292892 567.293C0.105356 567.106 0 566.851 0 566.586C0 566.321 0.105356 566.066 0.292892 565.879C0.480429 565.691 0.734784 565.586 1 565.586H300C300.265 565.586 300.52 565.691 300.707 565.879C300.895 566.066 301 566.321 301 566.586C301 566.851 300.895 567.106 300.707 567.293C300.52 567.481 300.265 567.586 300 567.586Z" fill="#CACACA"/>
<path d="M931 567.586H702C701.735 567.586 701.48 567.481 701.293 567.293C701.105 567.106 701 566.851 701 566.586C701 566.321 701.105 566.066 701.293 565.879C701.48 565.691 701.735 565.586 702 565.586H931C931.265 565.586 931.52 565.691 931.707 565.879C931.895 566.066 932 566.321 932 566.586C932 566.851 931.895 567.106 931.707 567.293C931.52 567.481 931.265 567.586 931 567.586Z" fill="#CACACA"/>
</g>
<defs>
<clipPath id="clip0_5_649">
<rect width="932" height="567.586" fill="white"/>
</clipPath>
</defs>
</svg>
