<svg width="2170" height="1467" viewBox="0 0 2170 1467" fill="none" xmlns="http://www.w3.org/2000/svg">
<rect x="1220.97" y="403.871" width="678.259" height="370.129" fill="#2FAFD8"/>
<ellipse cx="1220.53" cy="515.829" rx="231.525" ry="258.17" fill="#2FAFD8"/>
<ellipse cx="1938.47" cy="515.829" rx="231.525" ry="258.17" fill="#2FAFD8"/>
<ellipse cx="1787.65" cy="403.359" rx="231.525" ry="258.17" fill="#2FAFD8"/>
<ellipse cx="1493.06" cy="258.17" rx="231.525" ry="258.17" fill="#2FAFD8"/>
<g clip-path="url(#clip0_5_648)">
<path d="M677.91 1301.15H616.91C614.788 1301.15 612.753 1300.31 611.253 1298.81C609.753 1297.31 608.91 1295.27 608.91 1293.15C608.91 1291.03 609.753 1289 611.253 1287.49C612.753 1285.99 614.788 1285.15 616.91 1285.15H677.91C680.031 1285.15 682.066 1285.99 683.567 1287.49C685.067 1289 685.91 1291.03 685.91 1293.15C685.91 1295.27 685.067 1297.31 683.567 1298.81C682.066 1300.31 680.031 1301.15 677.91 1301.15Z" fill="#CCCCCC"/>
<path d="M861.91 1298.15H800.91C798.788 1298.15 796.753 1297.31 795.253 1295.81C793.753 1294.31 792.91 1292.27 792.91 1290.15C792.91 1288.03 793.753 1286 795.253 1284.5C796.753 1282.99 798.788 1282.15 800.91 1282.15H861.91C864.031 1282.15 866.066 1282.99 867.566 1284.5C869.067 1286 869.91 1288.03 869.91 1290.15C869.91 1292.27 869.067 1294.31 867.566 1295.81C866.066 1297.31 864.031 1298.15 861.91 1298.15Z" fill="#CCCCCC"/>
<path d="M572.07 1290.65H551.946C551.595 1290.65 551.25 1290.56 550.946 1290.38C550.642 1290.21 550.389 1289.96 550.214 1289.65C550.038 1289.35 549.946 1289 549.946 1288.65C549.946 1288.3 550.038 1287.96 550.214 1287.65L556.276 1277.15C556.451 1276.85 556.704 1276.6 557.008 1276.42C557.312 1276.24 557.657 1276.15 558.008 1276.15C558.359 1276.15 558.704 1276.24 559.008 1276.42C559.312 1276.6 559.564 1276.85 559.74 1277.15L563.655 1283.93L565.923 1280C566.099 1279.7 566.351 1279.45 566.655 1279.27C566.959 1279.1 567.304 1279 567.655 1279C568.006 1279 568.351 1279.1 568.655 1279.27C568.959 1279.45 569.212 1279.7 569.387 1280L573.802 1287.65C573.978 1287.96 574.07 1288.3 574.07 1288.65C574.07 1289 573.978 1289.35 573.802 1289.65C573.627 1289.96 573.374 1290.21 573.07 1290.38C572.766 1290.56 572.421 1290.65 572.07 1290.65H572.07ZM572.07 1288.65L567.655 1281L564.521 1286.43C564.433 1286.59 564.307 1286.71 564.155 1286.8C564.003 1286.89 563.831 1286.93 563.655 1286.93V1286.93C563.479 1286.93 563.307 1286.89 563.155 1286.8C563.003 1286.71 562.877 1286.59 562.789 1286.43L558.008 1278.15L551.946 1288.65H572.07Z" fill="white"/>
<path d="M573.508 1276.65C574.612 1276.65 575.508 1275.76 575.508 1274.65C575.508 1273.55 574.612 1272.65 573.508 1272.65C572.403 1272.65 571.508 1273.55 571.508 1274.65C571.508 1275.76 572.403 1276.65 573.508 1276.65Z" fill="white"/>
<path d="M756.508 1294.15H740.508C739.58 1294.15 738.69 1293.78 738.034 1293.13C737.378 1292.47 737.009 1291.58 737.008 1290.65C737.008 1287.6 738.219 1284.68 740.376 1282.52C742.533 1280.36 745.458 1279.15 748.508 1279.15C751.558 1279.15 754.483 1280.36 756.64 1282.52C758.796 1284.68 760.008 1287.6 760.008 1290.65C760.007 1291.58 759.638 1292.47 758.981 1293.13C758.325 1293.78 757.436 1294.15 756.508 1294.15ZM748.508 1281.15C745.989 1281.16 743.574 1282.16 741.793 1283.94C740.012 1285.72 739.011 1288.13 739.008 1290.65C739.008 1291.05 739.166 1291.43 739.448 1291.71C739.729 1291.99 740.11 1292.15 740.508 1292.15H756.508C756.906 1292.15 757.287 1291.99 757.568 1291.71C757.849 1291.43 758.007 1291.05 758.008 1290.65C758.005 1288.13 757.003 1285.72 755.222 1283.94C753.441 1282.16 751.026 1281.16 748.508 1281.15V1281.15Z" fill="white"/>
<path d="M458.937 1455.2H471.197L477.029 1407.91L458.935 1407.91L458.937 1455.2Z" fill="#FFB8B8"/>
<path d="M494.841 1466.58L456.31 1466.58L456.309 1451.7L479.953 1451.69C483.902 1451.69 487.688 1453.26 490.48 1456.05C493.272 1458.85 494.841 1462.63 494.841 1466.58V1466.58L494.841 1466.58Z" fill="#2F2E41"/>
<path d="M412.937 1455.2H425.197L431.029 1407.91L412.935 1407.91L412.937 1455.2Z" fill="#FFB8B8"/>
<path d="M448.841 1466.58L410.31 1466.58L410.309 1451.7L433.953 1451.69C437.902 1451.69 441.688 1453.26 444.48 1456.05C447.272 1458.85 448.841 1462.63 448.841 1466.58V1466.58L448.841 1466.58Z" fill="#2F2E41"/>
<path d="M459.303 1431.38C458.203 1431.38 457.142 1430.97 456.319 1430.24C455.496 1429.51 454.968 1428.51 454.834 1427.42L447.708 1367.81C447.607 1366.97 447.207 1366.2 446.58 1365.63C445.953 1365.07 445.142 1364.74 444.297 1364.73C443.452 1364.71 442.63 1365 441.982 1365.55C441.335 1366.09 440.906 1366.85 440.775 1367.69L431.798 1424.75C431.635 1425.81 431.097 1426.78 430.281 1427.48C429.465 1428.18 428.426 1428.56 427.352 1428.55H412.802C412.209 1428.55 411.621 1428.44 411.072 1428.21C410.524 1427.98 410.027 1427.64 409.608 1427.22C409.19 1426.8 408.859 1426.3 408.635 1425.75C408.411 1425.2 408.298 1424.61 408.302 1424.02L415.247 1297.48C415.249 1296.41 415.64 1295.37 416.348 1294.56C417.056 1293.74 418.033 1293.21 419.1 1293.07L473.094 1285.23C473.735 1285.13 474.389 1285.18 475.011 1285.36C475.633 1285.55 476.208 1285.86 476.697 1286.29C477.185 1286.71 477.576 1287.24 477.843 1287.83C478.109 1288.42 478.245 1289.06 478.24 1289.71L477.298 1426.27C477.29 1427.42 476.842 1428.52 476.044 1429.35C475.247 1430.18 474.162 1430.68 473.012 1430.73L459.516 1431.38C459.445 1431.38 459.373 1431.38 459.303 1431.38Z" fill="#2F2E41"/>
<path d="M519 1466.65H379C378.735 1466.65 378.48 1466.55 378.293 1466.36C378.105 1466.17 378 1465.92 378 1465.65C378 1465.39 378.105 1465.13 378.293 1464.94C378.48 1464.76 378.735 1464.65 379 1464.65H519C519.265 1464.65 519.52 1464.76 519.707 1464.94C519.895 1465.13 520 1465.39 520 1465.65C520 1465.92 519.895 1466.17 519.707 1466.36C519.52 1466.55 519.265 1466.65 519 1466.65Z" fill="#3F3D56"/>
</g>
<path d="M907.499 1088C829.185 1088 753.295 1062.73 692.758 1016.5C632.22 970.264 590.783 905.929 575.505 834.452C560.227 762.976 572.054 688.781 608.97 624.509C645.887 560.238 705.61 509.866 777.962 481.978C850.315 454.089 930.82 450.409 1005.76 471.564C1080.7 492.719 1145.44 537.401 1188.95 597.995C1232.46 658.59 1252.05 731.349 1244.37 803.875C1236.69 876.401 1202.23 944.206 1146.86 995.738C1115.5 1025.08 1078.19 1048.34 1037.11 1064.18C996.022 1080.02 951.969 1088.11 907.499 1088V1088ZM907.499 460.421C722.285 460.421 571.602 600.643 571.602 772.999C571.602 945.355 722.285 1085.58 907.499 1085.58C1092.71 1085.58 1243.4 945.355 1243.4 772.999C1243.4 600.643 1092.71 460.421 907.499 460.421V460.421Z" fill="#CCCCCC"/>
<path d="M683.793 318.362H423.623V313H305.652V318.362H44.41C42.099 318.362 39.8105 318.818 37.6754 319.702C35.5402 320.586 33.6002 321.883 31.966 323.517C30.3318 325.151 29.0355 327.091 28.1511 329.226C27.2667 331.361 26.8115 333.65 26.8115 335.961V692.213C26.8115 696.88 28.6656 701.357 31.966 704.657C35.2664 707.957 39.7426 709.812 44.41 709.812H683.793C688.46 709.812 692.936 707.957 696.237 704.657C699.537 701.357 701.391 696.88 701.391 692.213V335.961C701.391 333.65 700.936 331.361 700.052 329.226C699.167 327.091 697.871 325.151 696.237 323.517C694.603 321.883 692.663 320.586 690.527 319.702C688.392 318.818 686.104 318.362 683.793 318.362V318.362Z" fill="#3F3D56"/>
<path d="M677.797 349.463H50.4058V703.376H677.797V349.463Z" fill="#F47059"/>
<path d="M363.565 339.811C367.119 339.811 370 336.931 370 333.377C370 329.823 367.119 326.942 363.565 326.942C360.011 326.942 357.13 329.823 357.13 333.377C357.13 336.931 360.011 339.811 363.565 339.811Z" fill="#F47059"/>
<path opacity="0.1" d="M498.374 703.377H50.4062V349.464L498.374 703.377Z" fill="black"/>
<path d="M148.573 676.893C181.88 676.893 208.88 649.893 208.88 616.587C208.88 583.28 181.88 556.28 148.573 556.28C115.267 556.28 88.2666 583.28 88.2666 616.587C88.2666 649.893 115.267 676.893 148.573 676.893Z" fill="#F2F2F2"/>
<path d="M568.558 540.332H509.953V552.577H568.558V540.332Z" fill="#3F3D56"/>
<path d="M639.409 444.989H439.102V450.237H639.409V444.989Z" fill="#3F3D56"/>
<path d="M639.409 461.608H439.102V466.857H639.409V461.608Z" fill="#3F3D56"/>
<path d="M639.409 478.228H439.102V483.476H639.409V478.228Z" fill="#3F3D56"/>
<path d="M639.409 494.847H439.102V500.095H639.409V494.847Z" fill="#3F3D56"/>
<path d="M639.409 511.466H439.102V516.715H639.409V511.466Z" fill="#3F3D56"/>
<path d="M639.409 356.644H614.917V381.135H639.409V356.644Z" fill="#F2F2F2"/>
<path d="M650.78 392.507H621.04V362.767H650.78V392.507ZM622.333 391.214H649.487V364.06H622.333V391.214Z" fill="#3F3D56"/>
<path d="M719.007 696.942H657.778V692.53C657.778 692.416 657.755 692.302 657.711 692.196C657.667 692.09 657.603 691.993 657.522 691.912C657.44 691.831 657.344 691.766 657.238 691.722C657.132 691.678 657.018 691.656 656.903 691.656H635.91C635.795 691.656 635.682 691.678 635.575 691.722C635.469 691.766 635.373 691.831 635.292 691.912C635.21 691.993 635.146 692.09 635.102 692.196C635.058 692.302 635.035 692.416 635.035 692.53V696.942H621.915V692.53C621.915 692.416 621.892 692.302 621.848 692.196C621.804 692.09 621.74 691.993 621.659 691.912C621.577 691.831 621.481 691.766 621.375 691.722C621.269 691.678 621.155 691.656 621.04 691.656H600.047C599.932 691.656 599.819 691.678 599.713 691.722C599.606 691.766 599.51 691.831 599.429 691.912C599.348 691.993 599.283 692.09 599.239 692.196C599.195 692.302 599.173 692.416 599.173 692.53V696.942H586.052V692.53C586.052 692.416 586.029 692.302 585.985 692.196C585.942 692.09 585.877 691.993 585.796 691.912C585.715 691.831 585.618 691.766 585.512 691.722C585.406 691.678 585.292 691.656 585.177 691.656H564.184C564.07 691.656 563.956 691.678 563.85 691.722C563.744 691.766 563.647 691.831 563.566 691.912C563.485 691.993 563.42 692.09 563.376 692.196C563.332 692.302 563.31 692.416 563.31 692.53V696.942H550.189V692.53C550.189 692.416 550.167 692.302 550.123 692.196C550.079 692.09 550.014 691.993 549.933 691.912C549.852 691.831 549.755 691.766 549.649 691.722C549.543 691.678 549.429 691.656 549.314 691.656H528.322C528.207 691.656 528.093 691.678 527.987 691.722C527.881 691.766 527.784 691.831 527.703 691.912C527.622 691.993 527.557 692.09 527.513 692.196C527.469 692.302 527.447 692.416 527.447 692.53V696.942H514.326V692.53C514.326 692.416 514.304 692.302 514.26 692.196C514.216 692.09 514.151 691.993 514.07 691.912C513.989 691.831 513.892 691.766 513.786 691.722C513.68 691.678 513.566 691.656 513.452 691.656H492.459C492.344 691.656 492.23 691.678 492.124 691.722C492.018 691.766 491.921 691.831 491.84 691.912C491.759 691.993 491.694 692.09 491.651 692.196C491.607 692.302 491.584 692.416 491.584 692.53V696.942H478.463V692.53C478.463 692.416 478.441 692.302 478.397 692.196C478.353 692.09 478.288 691.993 478.207 691.912C478.126 691.831 478.03 691.766 477.923 691.722C477.817 691.678 477.704 691.656 477.589 691.656H456.596C456.481 691.656 456.367 691.678 456.261 691.722C456.155 691.766 456.058 691.831 455.977 691.912C455.896 691.993 455.832 692.09 455.788 692.196C455.744 692.302 455.721 692.416 455.721 692.53V696.942H442.6V692.53C442.6 692.416 442.578 692.302 442.534 692.196C442.49 692.09 442.425 691.993 442.344 691.912C442.263 691.831 442.167 691.766 442.06 691.722C441.954 691.678 441.841 691.656 441.726 691.656H277.281C277.166 691.656 277.053 691.678 276.947 691.722C276.84 691.766 276.744 691.831 276.663 691.912C276.582 691.993 276.517 692.09 276.473 692.196C276.429 692.302 276.407 692.416 276.407 692.53V696.942H263.286V692.53C263.286 692.416 263.263 692.302 263.219 692.196C263.176 692.09 263.111 691.993 263.03 691.912C262.949 691.831 262.852 691.766 262.746 691.722C262.64 691.678 262.526 691.656 262.411 691.656H241.418C241.304 691.656 241.19 691.678 241.084 691.722C240.978 691.766 240.881 691.831 240.8 691.912C240.719 691.993 240.654 692.09 240.61 692.196C240.566 692.302 240.544 692.416 240.544 692.53V696.942H227.423V692.53C227.423 692.416 227.401 692.302 227.357 692.196C227.313 692.09 227.248 691.993 227.167 691.912C227.086 691.831 226.989 691.766 226.883 691.722C226.777 691.678 226.663 691.656 226.548 691.656H205.556C205.441 691.656 205.327 691.678 205.221 691.722C205.115 691.766 205.018 691.831 204.937 691.912C204.856 691.993 204.791 692.09 204.747 692.196C204.703 692.302 204.681 692.416 204.681 692.53V696.942H191.56V692.53C191.56 692.416 191.538 692.302 191.494 692.196C191.45 692.09 191.385 691.993 191.304 691.912C191.223 691.831 191.126 691.766 191.02 691.722C190.914 691.678 190.8 691.656 190.686 691.656H169.693C169.578 691.656 169.464 691.678 169.358 691.722C169.252 691.766 169.155 691.831 169.074 691.912C168.993 691.993 168.928 692.09 168.885 692.196C168.841 692.302 168.818 692.416 168.818 692.53V696.942H155.697V692.53C155.697 692.416 155.675 692.302 155.631 692.196C155.587 692.09 155.522 691.993 155.441 691.912C155.36 691.831 155.264 691.766 155.157 691.722C155.051 691.678 154.938 691.656 154.823 691.656H133.83C133.715 691.656 133.601 691.678 133.495 691.722C133.389 691.766 133.292 691.831 133.211 691.912C133.13 691.993 133.066 692.09 133.022 692.196C132.978 692.302 132.955 692.416 132.955 692.53V696.942H119.835V692.53C119.835 692.416 119.812 692.302 119.768 692.196C119.724 692.09 119.66 691.993 119.578 691.912C119.497 691.831 119.401 691.766 119.295 691.722C119.188 691.678 119.075 691.656 118.96 691.656H97.9669C97.852 691.656 97.7383 691.678 97.6322 691.722C97.526 691.766 97.4296 691.831 97.3484 691.912C97.2672 691.993 97.2027 692.09 97.1588 692.196C97.1148 692.302 97.0922 692.416 97.0922 692.53V696.942H83.9716V692.53C83.9716 692.416 83.949 692.302 83.9051 692.196C83.8611 692.09 83.7967 691.993 83.7154 691.912C83.6342 691.831 83.5378 691.766 83.4317 691.722C83.3255 691.678 83.2118 691.656 83.0969 691.656H62.104C61.9891 691.656 61.8754 691.678 61.7693 691.722C61.6632 691.766 61.5667 691.831 61.4855 691.912C61.4043 691.993 61.3398 692.09 61.2959 692.196C61.2519 692.302 61.2293 692.416 61.2293 692.53V696.942H20.9929C15.4252 696.942 10.0856 699.154 6.14869 703.091C2.21175 707.028 5.30432e-06 712.367 0 717.935V727.427C1.5913e-05 732.995 2.21177 738.335 6.1487 742.272C10.0856 746.209 15.4253 748.42 20.9929 748.42H719.007C724.575 748.42 729.914 746.209 733.851 742.272C737.788 738.335 740 732.995 740 727.427V717.935C740 712.367 737.788 707.028 733.851 703.091C729.914 699.154 724.575 696.942 719.007 696.942Z" fill="#3F3D56"/>
<path d="M163.171 654.253C148.14 654.253 133.446 649.796 120.948 641.445C108.45 633.094 98.7088 621.224 92.9566 607.337C87.2043 593.45 85.6993 578.169 88.6317 563.426C91.5642 548.684 98.8025 535.142 109.431 524.513C120.06 513.884 133.602 506.646 148.345 503.713C163.087 500.781 178.368 502.286 192.255 508.038C206.143 513.79 218.012 523.531 226.363 536.03C234.714 548.528 239.171 563.222 239.171 578.253C239.149 598.402 231.134 617.72 216.886 631.968C202.639 646.216 183.321 654.23 163.171 654.253ZM163.171 504.253C148.536 504.253 134.228 508.593 122.059 516.724C109.89 524.855 100.405 536.413 94.8043 549.934C89.2034 563.456 87.738 578.335 90.5933 592.69C93.4486 607.044 100.496 620.23 110.846 630.579C121.195 640.928 134.38 647.976 148.735 650.831C163.089 653.686 177.968 652.221 191.49 646.62C205.012 641.019 216.569 631.534 224.7 619.365C232.831 607.196 237.171 592.889 237.171 578.253C237.149 558.634 229.346 539.824 215.473 525.952C201.6 512.079 182.791 504.275 163.171 504.253V504.253Z" fill="#3F3D56"/>
<path d="M333.302 656.588C328.981 656.574 324.678 656.017 320.496 654.932L319.671 654.704L318.907 654.32C291.259 640.459 267.935 622.149 249.581 599.9C234.387 581.374 222.542 560.341 214.577 537.744C205.052 510.691 200.47 482.145 201.049 453.47C201.06 452.868 201.07 452.404 201.07 452.083C201.07 438.144 208.808 425.914 220.782 420.924C229.947 417.106 313.157 382.928 319.169 380.458C330.491 374.785 342.57 379.52 344.503 380.348C348.839 382.121 425.762 413.583 442.385 421.499C459.517 429.657 464.087 444.312 464.087 451.685C464.087 485.067 458.306 516.265 446.904 544.412C437.696 567.195 424.644 588.228 408.319 606.596C376.821 642.042 345.314 654.608 345.01 654.719C341.245 656.014 337.283 656.647 333.302 656.588V656.588ZM325.892 638.235C328.624 638.848 334.913 639.766 339.012 638.271C344.219 636.372 370.589 622.697 395.232 594.966C429.279 556.651 446.554 508.486 446.58 451.809C446.519 450.66 445.703 442.471 434.858 437.306C418.557 429.544 338.603 396.851 337.797 396.521L337.576 396.428C335.9 395.725 330.568 394.246 326.892 396.173L326.156 396.516C325.265 396.882 236.936 433.16 227.516 437.085C220.926 439.831 218.578 446.633 218.578 452.083C218.578 452.482 218.568 453.061 218.553 453.81C217.801 492.591 226.775 588.018 325.892 638.235Z" fill="#3F3D56"/>
<path d="M323.087 387.655C323.087 387.655 233.956 424.263 224.406 428.242C214.856 432.221 210.081 441.771 210.081 451.321C210.081 460.87 202.919 585.482 323.087 645.732C323.087 645.732 333.994 648.75 342.268 645.732C350.543 642.714 455.59 591.782 455.59 450.923C455.59 450.923 455.59 436.598 438.878 428.64C422.166 420.682 341.366 387.655 341.366 387.655C341.366 387.655 331.443 383.278 323.087 387.655Z" fill="#C1EBF1"/>
<path opacity="0.2" d="M333 418.71V613.998C333 613.998 422.927 570.711 422.131 456.909L333 418.71Z" fill="black"/>
<path d="M1103.67 1260.81L1103.7 1256.54C1104.55 1255.18 1105.38 1253.82 1106.21 1252.45C1106.75 1251.61 1107.26 1250.75 1107.79 1249.89C1116.44 1235.73 1124.73 1221.48 1132.68 1207.14C1140.63 1192.81 1148.21 1178.42 1155.43 1163.95C1155.59 1163.56 1155.89 1163.25 1156.26 1163.06C1156.64 1162.87 1157.07 1162.82 1157.47 1162.92C1157.53 1162.93 1157.58 1162.96 1157.62 1162.99C1158 1163.19 1158.16 1163.64 1157.83 1164.3C1156.94 1166.08 1156.05 1167.86 1155.14 1169.64C1147.8 1184.14 1140.1 1198.59 1132.02 1212.98C1123.95 1227.35 1115.53 1241.65 1106.74 1255.86C1106.56 1256.16 1106.37 1256.45 1106.19 1256.75C1105.35 1258.11 1104.51 1259.45 1103.67 1260.81Z" fill="white"/>
<path d="M1096.7 984H489.704C487.392 984.002 485.175 984.921 483.54 986.556C481.905 988.191 480.986 990.408 480.984 992.72V1404.04C480.986 1406.35 481.905 1408.57 483.54 1410.2C485.175 1411.84 487.392 1412.76 489.704 1412.76H1096.7C1097.96 1412.76 1099.21 1412.49 1100.35 1411.96C1101.5 1411.43 1102.52 1410.66 1103.33 1409.7C1103.4 1409.62 1103.47 1409.54 1103.52 1409.46C1104.04 1408.82 1104.47 1408.11 1104.77 1407.35C1105.21 1406.3 1105.44 1405.18 1105.43 1404.04V992.72C1105.43 990.406 1104.51 988.188 1102.87 986.553C1101.24 984.918 1099.02 984 1096.7 984V984ZM1102.94 1404.04C1102.94 1405.26 1102.59 1406.45 1101.91 1407.46C1101.32 1408.35 1100.5 1409.08 1099.55 1409.58C1098.67 1410.04 1097.7 1410.27 1096.7 1410.27H489.704C488.052 1410.27 486.468 1409.61 485.301 1408.44C484.133 1407.28 483.476 1405.69 483.474 1404.04V992.72C483.476 991.068 484.133 989.485 485.301 988.317C486.468 987.149 488.052 986.492 489.704 986.49H1096.7C1098.36 986.49 1099.94 987.146 1101.11 988.314C1102.28 989.482 1102.94 991.067 1102.94 992.72V1404.04Z" fill="#3F3D56"/>
<path d="M1104.18 1018.95H482.227V1021.44H1104.18V1018.95Z" fill="#3F3D56"/>
<path d="M503.415 1010.17C507.546 1010.17 510.894 1006.83 510.894 1002.7C510.894 998.566 507.546 995.218 503.415 995.218C499.285 995.218 495.937 998.566 495.937 1002.7C495.937 1006.83 499.285 1010.17 503.415 1010.17Z" fill="#3F3D56"/>
<path d="M524.916 1010.17C529.046 1010.17 532.394 1006.83 532.394 1002.7C532.394 998.566 529.046 995.218 524.916 995.218C520.786 995.218 517.438 998.566 517.438 1002.7C517.438 1006.83 520.786 1010.17 524.916 1010.17Z" fill="#3F3D56"/>
<path d="M546.416 1010.17C550.547 1010.17 553.895 1006.83 553.895 1002.7C553.895 998.566 550.547 995.218 546.416 995.218C542.286 995.218 538.938 998.566 538.938 1002.7C538.938 1006.83 542.286 1010.17 546.416 1010.17Z" fill="#3F3D56"/>
<path d="M949.303 1076.65H637.303C633.855 1076.65 630.549 1075.28 628.111 1072.84C625.673 1070.41 624.303 1067.1 624.303 1063.65C624.303 1060.2 625.673 1056.9 628.111 1054.46C630.549 1052.02 633.855 1050.65 637.303 1050.65H949.303C952.751 1050.65 956.058 1052.02 958.496 1054.46C960.934 1056.9 962.303 1060.2 962.303 1063.65C962.303 1067.1 960.934 1070.41 958.496 1072.84C956.058 1075.28 952.751 1076.65 949.303 1076.65ZM637.303 1052.65C634.386 1052.65 631.588 1053.81 629.525 1055.87C627.462 1057.94 626.303 1060.73 626.303 1063.65C626.303 1066.57 627.462 1069.37 629.525 1071.43C631.588 1073.49 634.386 1074.65 637.303 1074.65H949.303C952.221 1074.65 955.019 1073.49 957.081 1071.43C959.144 1069.37 960.303 1066.57 960.303 1063.65C960.303 1060.73 959.144 1057.94 957.081 1055.87C955.019 1053.81 952.221 1052.65 949.303 1052.65H637.303Z" fill="#3F3D56"/>
<path d="M639.91 1156.15H611.91C609.788 1156.15 607.753 1155.31 606.253 1153.81C604.753 1152.31 603.91 1150.27 603.91 1148.15C603.91 1146.03 604.753 1144 606.253 1142.5C607.753 1140.99 609.788 1140.15 611.91 1140.15H639.91C642.031 1140.15 644.066 1140.99 645.567 1142.5C647.067 1144 647.91 1146.03 647.91 1148.15C647.91 1150.27 647.067 1152.31 645.567 1153.81C644.066 1155.31 642.031 1156.15 639.91 1156.15Z" fill="#CCCCCC"/>
<path d="M672.91 1183.15H611.91C609.788 1183.15 607.753 1182.31 606.253 1180.81C604.753 1179.31 603.91 1177.27 603.91 1175.15C603.91 1173.03 604.753 1171 606.253 1169.5C607.753 1167.99 609.788 1167.15 611.91 1167.15H672.91C675.031 1167.15 677.066 1167.99 678.567 1169.5C680.067 1171 680.91 1173.03 680.91 1175.15C680.91 1177.27 680.067 1179.31 678.567 1180.81C677.066 1182.31 675.031 1183.15 672.91 1183.15Z" fill="#CCCCCC"/>
<path d="M644.91 1274.15H616.91C614.788 1274.15 612.753 1273.31 611.253 1271.81C609.753 1270.31 608.91 1268.27 608.91 1266.15C608.91 1264.03 609.753 1262 611.253 1260.5C612.753 1258.99 614.788 1258.15 616.91 1258.15H644.91C647.031 1258.15 649.066 1258.99 650.567 1260.5C652.067 1262 652.91 1264.03 652.91 1266.15C652.91 1268.27 652.067 1270.31 650.567 1271.81C649.066 1273.31 647.031 1274.15 644.91 1274.15Z" fill="#CCCCCC"/>
<path d="M828.91 1271.15H800.91C798.788 1271.15 796.753 1270.31 795.253 1268.81C793.753 1267.31 792.91 1265.27 792.91 1263.15C792.91 1261.03 793.753 1259 795.253 1257.5C796.753 1255.99 798.788 1255.15 800.91 1255.15H828.91C831.031 1255.15 833.066 1255.99 834.566 1257.5C836.067 1259 836.91 1261.03 836.91 1263.15C836.91 1265.27 836.067 1267.31 834.566 1268.81C833.066 1270.31 831.031 1271.15 828.91 1271.15Z" fill="#CCCCCC"/>
<path d="M825.91 1161.15H797.91C795.788 1161.15 793.753 1160.31 792.253 1158.81C790.753 1157.31 789.91 1155.27 789.91 1153.15C789.91 1151.03 790.753 1149 792.253 1147.5C793.753 1145.99 795.788 1145.15 797.91 1145.15H825.91C828.031 1145.15 830.066 1145.99 831.566 1147.5C833.067 1149 833.91 1151.03 833.91 1153.15C833.91 1155.27 833.067 1157.31 831.566 1158.81C830.066 1160.31 828.031 1161.15 825.91 1161.15Z" fill="#CCCCCC"/>
<path d="M858.91 1188.15H797.91C795.788 1188.15 793.753 1187.31 792.253 1185.81C790.753 1184.31 789.91 1182.27 789.91 1180.15C789.91 1178.03 790.753 1176 792.253 1174.5C793.753 1172.99 795.788 1172.15 797.91 1172.15H858.91C861.031 1172.15 863.066 1172.99 864.566 1174.5C866.067 1176 866.91 1178.03 866.91 1180.15C866.91 1182.27 866.067 1184.31 864.566 1185.81C863.066 1187.31 861.031 1188.15 858.91 1188.15Z" fill="#CCCCCC"/>
<path d="M1012.91 1155.15H984.91C982.788 1155.15 980.753 1154.31 979.253 1152.81C977.753 1151.31 976.91 1149.27 976.91 1147.15C976.91 1145.03 977.753 1143 979.253 1141.5C980.753 1139.99 982.788 1139.15 984.91 1139.15H1012.91C1015.03 1139.15 1017.07 1139.99 1018.57 1141.5C1020.07 1143 1020.91 1145.03 1020.91 1147.15C1020.91 1149.27 1020.07 1151.31 1018.57 1152.81C1017.07 1154.31 1015.03 1155.15 1012.91 1155.15Z" fill="#CCCCCC"/>
<path d="M1045.91 1182.15H984.91C982.788 1182.15 980.753 1181.31 979.253 1179.81C977.753 1178.31 976.91 1176.27 976.91 1174.15C976.91 1172.03 977.753 1170 979.253 1168.5C980.753 1166.99 982.788 1166.15 984.91 1166.15H1045.91C1048.03 1166.15 1050.07 1166.99 1051.57 1168.5C1053.07 1170 1053.91 1172.03 1053.91 1174.15C1053.91 1176.27 1053.07 1178.31 1051.57 1179.81C1050.07 1181.31 1048.03 1182.15 1045.91 1182.15Z" fill="#CCCCCC"/>
<path d="M562.508 1191.65C579.076 1191.65 592.508 1178.22 592.508 1161.65C592.508 1145.08 579.076 1131.65 562.508 1131.65C545.939 1131.65 532.508 1145.08 532.508 1161.65C532.508 1178.22 545.939 1191.65 562.508 1191.65Z" fill="#6C63FF"/>
<path d="M576.508 1175.15H548.508C547.712 1175.15 546.95 1174.84 546.387 1174.27C545.825 1173.71 545.509 1172.95 545.508 1172.15V1151.15C545.509 1150.36 545.825 1149.59 546.387 1149.03C546.95 1148.47 547.712 1148.15 548.508 1148.15H556.39C556.903 1148.15 557.407 1148.28 557.855 1148.53C558.303 1148.78 558.678 1149.14 558.945 1149.58L561.144 1153.15H576.508C577.303 1153.15 578.066 1153.47 578.628 1154.03C579.191 1154.59 579.507 1155.36 579.508 1156.15V1172.15C579.507 1172.95 579.191 1173.71 578.628 1174.27C578.066 1174.84 577.303 1175.15 576.508 1175.15V1175.15ZM548.508 1150.15C548.243 1150.15 547.989 1150.26 547.801 1150.45C547.614 1150.63 547.508 1150.89 547.508 1151.15V1172.15C547.508 1172.42 547.614 1172.67 547.801 1172.86C547.989 1173.05 548.243 1173.15 548.508 1173.15H576.508C576.773 1173.15 577.027 1173.05 577.215 1172.86C577.402 1172.67 577.507 1172.42 577.508 1172.15V1156.15C577.507 1155.89 577.402 1155.63 577.215 1155.45C577.027 1155.26 576.773 1155.15 576.508 1155.15H560.026L557.242 1150.63C557.153 1150.48 557.028 1150.36 556.879 1150.28C556.729 1150.2 556.561 1150.15 556.39 1150.15H548.508Z" fill="white"/>
<path d="M746.508 1196.65C763.076 1196.65 776.508 1183.22 776.508 1166.65C776.508 1150.08 763.076 1136.65 746.508 1136.65C729.939 1136.65 716.508 1150.08 716.508 1166.65C716.508 1183.22 729.939 1196.65 746.508 1196.65Z" fill="#6C63FF"/>
<path d="M759.508 1185.65H733.508C732.712 1185.65 731.95 1185.34 731.387 1184.77C730.825 1184.21 730.509 1183.45 730.508 1182.65V1150.65C730.509 1149.86 730.825 1149.09 731.387 1148.53C731.95 1147.97 732.712 1147.65 733.508 1147.65H752.347C753.031 1147.65 753.693 1147.89 754.227 1148.31L761.387 1154.07C761.737 1154.35 762.02 1154.7 762.215 1155.11C762.409 1155.51 762.509 1155.96 762.508 1156.41V1182.65C762.507 1183.45 762.191 1184.21 761.628 1184.77C761.066 1185.34 760.303 1185.65 759.508 1185.65V1185.65ZM733.508 1149.65C733.243 1149.65 732.989 1149.76 732.801 1149.95C732.614 1150.13 732.508 1150.39 732.508 1150.65V1182.65C732.508 1182.92 732.614 1183.17 732.801 1183.36C732.989 1183.55 733.243 1183.65 733.508 1183.65H759.508C759.773 1183.65 760.027 1183.55 760.215 1183.36C760.402 1183.17 760.507 1182.92 760.508 1182.65V1156.41C760.508 1156.26 760.475 1156.11 760.41 1155.97C760.345 1155.84 760.251 1155.72 760.134 1155.63L752.973 1149.87C752.796 1149.73 752.575 1149.65 752.347 1149.65H733.508Z" fill="white"/>
<path d="M754.508 1161.65H738.508C738.243 1161.65 737.988 1161.55 737.801 1161.36C737.613 1161.17 737.508 1160.92 737.508 1160.65C737.508 1160.39 737.613 1160.13 737.801 1159.95C737.988 1159.76 738.243 1159.65 738.508 1159.65H754.508C754.773 1159.65 755.027 1159.76 755.215 1159.95C755.402 1160.13 755.508 1160.39 755.508 1160.65C755.508 1160.92 755.402 1161.17 755.215 1161.36C755.027 1161.55 754.773 1161.65 754.508 1161.65Z" fill="white"/>
<path d="M754.508 1167.65H738.508C738.243 1167.65 737.988 1167.55 737.801 1167.36C737.613 1167.17 737.508 1166.92 737.508 1166.65C737.508 1166.39 737.613 1166.13 737.801 1165.95C737.988 1165.76 738.243 1165.65 738.508 1165.65H754.508C754.773 1165.65 755.027 1165.76 755.215 1165.95C755.402 1166.13 755.508 1166.39 755.508 1166.65C755.508 1166.92 755.402 1167.17 755.215 1167.36C755.027 1167.55 754.773 1167.65 754.508 1167.65Z" fill="white"/>
<path d="M754.508 1173.65H738.508C738.243 1173.65 737.988 1173.55 737.801 1173.36C737.613 1173.17 737.508 1172.92 737.508 1172.65C737.508 1172.39 737.613 1172.13 737.801 1171.95C737.988 1171.76 738.243 1171.65 738.508 1171.65H754.508C754.773 1171.65 755.027 1171.76 755.215 1171.95C755.402 1172.13 755.508 1172.39 755.508 1172.65C755.508 1172.92 755.402 1173.17 755.215 1173.36C755.027 1173.55 754.773 1173.65 754.508 1173.65Z" fill="white"/>
<path d="M931.508 1190.65C948.076 1190.65 961.508 1177.22 961.508 1160.65C961.508 1144.08 948.076 1130.65 931.508 1130.65C914.939 1130.65 901.508 1144.08 901.508 1160.65C901.508 1177.22 914.939 1190.65 931.508 1190.65Z" fill="#6C63FF"/>
<path d="M945.507 1171.65H917.507C916.712 1171.65 915.949 1171.34 915.387 1170.77C914.825 1170.21 914.508 1169.45 914.507 1168.65V1152.65C914.508 1151.86 914.825 1151.09 915.387 1150.53C915.949 1149.97 916.712 1149.65 917.507 1149.65H945.507C946.303 1149.65 947.065 1149.97 947.628 1150.53C948.19 1151.09 948.506 1151.86 948.507 1152.65V1168.65C948.506 1169.45 948.19 1170.21 947.628 1170.77C947.065 1171.34 946.303 1171.65 945.507 1171.65V1171.65ZM917.507 1151.65C917.242 1151.65 916.988 1151.76 916.801 1151.95C916.613 1152.13 916.508 1152.39 916.507 1152.65V1168.65C916.508 1168.92 916.613 1169.17 916.801 1169.36C916.988 1169.55 917.242 1169.65 917.507 1169.65H945.507C945.772 1169.65 946.027 1169.55 946.214 1169.36C946.402 1169.17 946.507 1168.92 946.507 1168.65V1152.65C946.507 1152.39 946.402 1152.13 946.214 1151.95C946.027 1151.76 945.772 1151.65 945.507 1151.65H917.507Z" fill="white"/>
<path d="M931.507 1163.29C930.946 1163.29 930.395 1163.13 929.918 1162.84L914.977 1153.5C914.753 1153.36 914.593 1153.14 914.534 1152.88C914.475 1152.62 914.52 1152.35 914.661 1152.12C914.801 1151.9 915.025 1151.74 915.283 1151.68C915.541 1151.62 915.813 1151.66 916.038 1151.8L930.978 1161.14C931.137 1161.24 931.321 1161.29 931.508 1161.29C931.695 1161.29 931.879 1161.24 932.038 1161.14L946.977 1151.8C947.202 1151.66 947.473 1151.62 947.731 1151.68C947.99 1151.74 948.213 1151.9 948.354 1152.12C948.494 1152.35 948.54 1152.62 948.481 1152.88C948.421 1153.14 948.262 1153.36 948.038 1153.5L933.098 1162.84C932.621 1163.13 932.07 1163.29 931.507 1163.29V1163.29Z" fill="white"/>
<path d="M562.508 1309.65C579.076 1309.65 592.508 1296.22 592.508 1279.65C592.508 1263.08 579.076 1249.65 562.508 1249.65C545.939 1249.65 532.508 1263.08 532.508 1279.65C532.508 1296.22 545.939 1309.65 562.508 1309.65Z" fill="#6C63FF"/>
<path d="M576.508 1290.65H548.508C547.712 1290.65 546.95 1290.34 546.387 1289.77C545.825 1289.21 545.509 1288.45 545.508 1287.65V1271.65C545.509 1270.86 545.825 1270.09 546.387 1269.53C546.95 1268.97 547.712 1268.65 548.508 1268.65H576.508C577.303 1268.65 578.066 1268.97 578.628 1269.53C579.191 1270.09 579.507 1270.86 579.508 1271.65V1287.65C579.507 1288.45 579.191 1289.21 578.628 1289.77C578.066 1290.34 577.303 1290.65 576.508 1290.65ZM548.508 1270.65C548.243 1270.65 547.988 1270.76 547.801 1270.95C547.614 1271.13 547.508 1271.39 547.508 1271.65V1287.65C547.508 1287.92 547.614 1288.17 547.801 1288.36C547.988 1288.55 548.243 1288.65 548.508 1288.65H576.508C576.773 1288.65 577.027 1288.55 577.215 1288.36C577.402 1288.17 577.508 1287.92 577.508 1287.65V1271.65C577.508 1271.39 577.402 1271.13 577.215 1270.95C577.027 1270.76 576.773 1270.65 576.508 1270.65H548.508Z" fill="white"/>
<path d="M748.508 1306.65C765.076 1306.65 778.508 1293.22 778.508 1276.65C778.508 1260.08 765.076 1246.65 748.508 1246.65C731.939 1246.65 718.508 1260.08 718.508 1276.65C718.508 1293.22 731.939 1306.65 748.508 1306.65Z" fill="#6C63FF"/>
<path d="M748.508 1277.15C746.728 1277.15 744.988 1276.62 743.508 1275.64C742.028 1274.65 740.874 1273.24 740.193 1271.6C739.512 1269.95 739.333 1268.14 739.681 1266.4C740.028 1264.65 740.885 1263.05 742.144 1261.79C743.403 1260.53 745.006 1259.67 746.752 1259.33C748.498 1258.98 750.307 1259.16 751.952 1259.84C753.596 1260.52 755.002 1261.67 755.991 1263.15C756.98 1264.63 757.508 1266.37 757.508 1268.15C757.505 1270.54 756.556 1272.83 754.869 1274.51C753.182 1276.2 750.894 1277.15 748.508 1277.15V1277.15ZM748.508 1261.15C747.123 1261.15 745.77 1261.56 744.619 1262.33C743.468 1263.1 742.57 1264.19 742.041 1265.47C741.511 1266.75 741.372 1268.16 741.642 1269.52C741.912 1270.88 742.579 1272.12 743.558 1273.1C744.537 1274.08 745.784 1274.75 747.142 1275.02C748.5 1275.29 749.907 1275.15 751.187 1274.62C752.466 1274.09 753.559 1273.19 754.328 1272.04C755.097 1270.89 755.508 1269.54 755.508 1268.15C755.506 1266.3 754.767 1264.52 753.455 1263.2C752.143 1261.89 750.364 1261.15 748.508 1261.15Z" fill="white"/>
<path d="M414.434 1314.36C415.755 1313.51 416.874 1312.38 417.711 1311.05C418.548 1309.72 419.084 1308.23 419.281 1306.67C419.477 1305.11 419.33 1303.53 418.849 1302.03C418.368 1300.54 417.565 1299.17 416.496 1298.02L424.569 1183.46L401.316 1185.71L400.677 1297.9C398.862 1299.82 397.816 1302.35 397.736 1304.99C397.657 1307.63 398.549 1310.21 400.245 1312.24C401.941 1314.27 404.322 1315.61 406.937 1316C409.552 1316.39 412.22 1315.8 414.434 1314.36H414.434Z" fill="#FFB8B8"/>
<path d="M431.31 1302.27C426.116 1302.25 420.965 1301.33 416.084 1299.55C415.256 1299.25 414.538 1298.71 414.018 1297.99C413.499 1297.28 413.202 1296.43 413.166 1295.55C412.7 1285.21 409.975 1232.01 402.041 1199.55C400.499 1193.18 400.876 1186.5 403.125 1180.35C405.374 1174.2 409.394 1168.85 414.678 1164.98C415.104 1164.67 415.54 1164.37 415.983 1164.07C420.571 1161.02 425.865 1159.19 431.36 1158.76C436.856 1158.33 442.37 1159.31 447.378 1161.61C452.552 1163.93 457.048 1167.53 460.437 1172.07C463.827 1176.62 465.997 1181.95 466.742 1187.57L479.679 1283.62C479.763 1284.22 479.723 1284.83 479.563 1285.42C479.403 1286 479.126 1286.55 478.748 1287.02C478.379 1287.49 477.918 1287.88 477.393 1288.17C476.868 1288.46 476.291 1288.64 475.695 1288.7C471.212 1289.14 461.914 1290.88 450.015 1297.49C444.293 1300.66 437.851 1302.31 431.31 1302.27V1302.27Z" fill="#3F3D56"/>
<path d="M415.493 1222.65L394.203 1216.87C393.052 1216.56 392.072 1215.8 391.478 1214.77C390.885 1213.73 390.726 1212.5 391.037 1211.35L398.522 1183.75C399.323 1180.79 401.191 1178.24 403.766 1176.57C406.34 1174.91 409.438 1174.26 412.462 1174.75C415.487 1175.24 418.224 1176.83 420.145 1179.22C422.067 1181.6 423.037 1184.62 422.868 1187.68L421.164 1218.55C421.127 1219.22 420.941 1219.87 420.62 1220.46C420.298 1221.05 419.849 1221.56 419.306 1221.95C418.762 1222.34 418.138 1222.61 417.478 1222.73C416.818 1222.85 416.14 1222.82 415.493 1222.65V1222.65Z" fill="#3F3D56"/>
<path d="M439.193 1148.57C452.758 1148.57 463.754 1137.57 463.754 1124.01C463.754 1110.45 452.758 1099.45 439.193 1099.45C425.629 1099.45 414.632 1110.45 414.632 1124.01C414.632 1137.57 425.629 1148.57 439.193 1148.57Z" fill="#FFB8B8"/>
<path d="M528.197 1172.26C528.074 1172.8 527.994 1173.35 527.958 1173.9L485 1198.69L474.559 1192.68L463.428 1207.25L485.765 1223.17L534.773 1184.51C536.772 1185.25 538.948 1185.36 541.013 1184.83C543.078 1184.3 544.934 1183.16 546.333 1181.55C547.732 1179.94 548.608 1177.95 548.846 1175.83C549.083 1173.71 548.67 1171.57 547.661 1169.7C546.653 1167.82 545.097 1166.29 543.2 1165.32C541.303 1164.35 539.155 1163.98 537.042 1164.26C534.929 1164.54 532.951 1165.45 531.371 1166.88C529.791 1168.31 528.684 1170.19 528.197 1172.26V1172.26Z" fill="#FFB8B8"/>
<path d="M481.44 1199.88L462.936 1211.89C461.934 1212.54 460.717 1212.76 459.55 1212.52C458.383 1212.27 457.362 1211.57 456.711 1210.57L441.141 1186.57C439.474 1184 438.816 1180.91 439.296 1177.88C439.776 1174.86 441.359 1172.11 443.741 1170.19C446.122 1168.26 449.133 1167.28 452.192 1167.44C455.252 1167.6 458.143 1168.89 460.31 1171.06L482.173 1192.93C482.647 1193.4 483.009 1193.97 483.233 1194.61C483.457 1195.24 483.536 1195.91 483.466 1196.58C483.396 1197.25 483.178 1197.89 482.827 1198.46C482.477 1199.03 482.003 1199.52 481.44 1199.88Z" fill="#3F3D56"/>
<path d="M421.813 1143.44C426.395 1148.32 434.904 1145.7 435.501 1139.03C435.548 1138.52 435.545 1138 435.491 1137.48C435.183 1134.52 433.476 1131.84 433.885 1128.72C433.978 1127.95 434.267 1127.21 434.725 1126.58C438.377 1121.69 446.948 1128.76 450.394 1124.34C452.507 1121.62 450.023 1117.35 451.644 1114.32C453.784 1110.31 460.123 1112.29 464.098 1110.1C468.521 1107.66 468.256 1100.87 465.345 1096.74C461.794 1091.71 455.569 1089.02 449.422 1088.64C443.274 1088.25 437.169 1089.91 431.429 1092.15C424.908 1094.69 418.442 1098.2 414.429 1103.93C409.548 1110.91 409.079 1120.28 411.519 1128.44C413.004 1133.4 418.071 1139.46 421.813 1143.44Z" fill="#2F2E41"/>
<path d="M1517.94 668.668C1457.77 668.668 1399.46 647.806 1352.95 609.636C1306.44 571.466 1274.61 518.351 1262.87 459.34C1251.13 400.329 1260.22 339.073 1288.58 286.011C1316.94 232.948 1362.83 191.361 1418.41 168.337C1474 145.312 1535.85 142.273 1593.43 159.739C1651.01 177.205 1700.74 214.094 1734.17 264.121C1767.6 314.148 1782.65 374.218 1776.75 434.095C1770.85 493.972 1744.37 549.953 1701.83 592.497C1677.74 616.722 1649.08 635.928 1617.51 649.002C1585.95 662.077 1552.1 668.761 1517.94 668.668V668.668ZM1517.94 150.539C1375.64 150.539 1259.87 266.307 1259.87 408.604C1259.87 550.901 1375.64 666.668 1517.94 666.668C1660.23 666.668 1776 550.901 1776 408.604C1776 266.307 1660.23 150.539 1517.94 150.539V150.539Z" fill="#CCCCCC"/>
<path d="M1614.5 707.668V445.668H1419.5V707.668H1614.5Z" fill="#2F2E41"/>
<path d="M1648 437.668H1386V541.668H1648V437.668Z" fill="#3F3D56"/>
<path d="M1648 553.668H1386V657.668H1648V553.668Z" fill="#3F3D56"/>
<path d="M1648 669.668H1386V773.668H1648V669.668Z" fill="#3F3D56"/>
<path d="M1648 481.765H1386V497.765H1648V481.765Z" fill="#6C63FF"/>
<path d="M1648 597.765H1386V613.765H1648V597.765Z" fill="#6C63FF"/>
<path d="M1648 713.765H1386V729.765H1648V713.765Z" fill="#6C63FF"/>
<path d="M1597 458.668C1600.31 458.668 1603 455.982 1603 452.668C1603 449.355 1600.31 446.668 1597 446.668C1593.69 446.668 1591 449.355 1591 452.668C1591 455.982 1593.69 458.668 1597 458.668Z" fill="#6C63FF"/>
<path d="M1618 458.668C1621.31 458.668 1624 455.982 1624 452.668C1624 449.355 1621.31 446.668 1618 446.668C1614.69 446.668 1612 449.355 1612 452.668C1612 455.982 1614.69 458.668 1618 458.668Z" fill="#6C63FF"/>
<path d="M1639 458.668C1642.31 458.668 1645 455.982 1645 452.668C1645 449.355 1642.31 446.668 1639 446.668C1635.69 446.668 1633 449.355 1633 452.668C1633 455.982 1635.69 458.668 1639 458.668Z" fill="#6C63FF"/>
<path d="M1597 572.668C1600.31 572.668 1603 569.982 1603 566.668C1603 563.355 1600.31 560.668 1597 560.668C1593.69 560.668 1591 563.355 1591 566.668C1591 569.982 1593.69 572.668 1597 572.668Z" fill="#6C63FF"/>
<path d="M1618 572.668C1621.31 572.668 1624 569.982 1624 566.668C1624 563.355 1621.31 560.668 1618 560.668C1614.69 560.668 1612 563.355 1612 566.668C1612 569.982 1614.69 572.668 1618 572.668Z" fill="#6C63FF"/>
<path d="M1639 572.668C1642.31 572.668 1645 569.982 1645 566.668C1645 563.355 1642.31 560.668 1639 560.668C1635.69 560.668 1633 563.355 1633 566.668C1633 569.982 1635.69 572.668 1639 572.668Z" fill="#6C63FF"/>
<path d="M1597 686.668C1600.31 686.668 1603 683.982 1603 680.668C1603 677.355 1600.31 674.668 1597 674.668C1593.69 674.668 1591 677.355 1591 680.668C1591 683.982 1593.69 686.668 1597 686.668Z" fill="#6C63FF"/>
<path d="M1618 686.668C1621.31 686.668 1624 683.982 1624 680.668C1624 677.355 1621.31 674.668 1618 674.668C1614.69 674.668 1612 677.355 1612 680.668C1612 683.982 1614.69 686.668 1618 686.668Z" fill="#6C63FF"/>
<path d="M1639 686.668C1642.31 686.668 1645 683.982 1645 680.668C1645 677.355 1642.31 674.668 1639 674.668C1635.69 674.668 1633 677.355 1633 680.668C1633 683.982 1635.69 686.668 1639 686.668Z" fill="#6C63FF"/>
<path d="M1961 772.668H1073V774.668H1961V772.668Z" fill="#3F3D56"/>
<path d="M1314.88 334.926V520.917C1314.88 524.808 1313.33 528.54 1310.58 531.291C1307.83 534.043 1304.1 535.589 1300.21 535.59H1227.93C1224.04 535.59 1220.3 534.045 1217.55 531.293C1214.8 528.542 1213.25 524.809 1213.25 520.917V334.926C1213.25 331.034 1214.8 327.301 1217.55 324.55C1220.3 321.798 1224.04 320.253 1227.93 320.253H1236.7C1236.27 321.312 1236.1 322.46 1236.22 323.597C1236.34 324.734 1236.73 325.825 1237.37 326.774C1238.01 327.722 1238.87 328.5 1239.87 329.038C1240.88 329.576 1242.01 329.858 1243.15 329.86H1284.36C1285.5 329.858 1286.63 329.576 1287.64 329.038C1288.64 328.5 1289.5 327.722 1290.14 326.774C1290.78 325.825 1291.17 324.734 1291.29 323.597C1291.41 322.46 1291.24 321.312 1290.81 320.253H1300.21C1304.1 320.254 1307.83 321.8 1310.58 324.552C1313.33 327.303 1314.88 331.035 1314.88 334.926V334.926Z" fill="#E6E6E6"/>
<path d="M1310.06 355.771H1218.06V483.771H1310.06V355.771Z" fill="white"/>
<path d="M1280.91 443.788H1244.19V445.886H1280.91V443.788Z" fill="#E6E6E6"/>
<path d="M1300.97 451.492H1244.15V453.59H1300.97V451.492Z" fill="#6C63FF"/>
<path d="M1288.74 458.751H1244.15V460.849H1288.74V458.751Z" fill="#E6E6E6"/>
<path d="M1270.38 466.01H1244.15V468.108H1270.38V466.01Z" fill="#E6E6E6"/>
<path d="M1283.49 473.268H1244.15V475.366H1283.49V473.268Z" fill="#E6E6E6"/>
<path d="M1231.73 443.185H1227.53V447.381H1231.73V443.185Z" fill="#E6E6E6"/>
<path d="M1231.73 450.443H1227.53V454.64H1231.73V450.443Z" fill="#6C63FF"/>
<path d="M1231.73 457.702H1227.53V461.898H1231.73V457.702Z" fill="#E6E6E6"/>
<path d="M1231.73 464.96H1227.53V469.157H1231.73V464.96Z" fill="#E6E6E6"/>
<path d="M1231.73 472.219H1227.53V476.416H1231.73V472.219Z" fill="#E6E6E6"/>
<path d="M1282.75 371.771H1245.75V408.769H1282.75V371.771Z" fill="#E6E6E6"/>
<path d="M1639.99 64H1394.11V221.475H1639.99V64Z" fill="#E6E6E6"/>
<path d="M1799 322.861H1739V353.861H1799V322.861Z" fill="#E6E6E6"/>
<path d="M1799 433.861H1739V464.861H1799V433.861Z" fill="#E6E6E6"/>
<path d="M1769 443.861C1796.61 443.861 1819 421.475 1819 393.861C1819 366.247 1796.61 343.861 1769 343.861C1741.39 343.861 1719 366.247 1719 393.861C1719 421.475 1741.39 443.861 1769 443.861Z" fill="#E6E6E6"/>
<path d="M1769 432.861C1790.54 432.861 1808 415.4 1808 393.861C1808 372.322 1790.54 354.861 1769 354.861C1747.46 354.861 1730 372.322 1730 393.861C1730 415.4 1747.46 432.861 1769 432.861Z" fill="white"/>
<path d="M1786.48 383.175H1756.23V384.903H1786.48V383.175Z" fill="#E2E2E2"/>
<path d="M1803 389.521H1756.2V391.249H1803V389.521Z" fill="#6C63FF"/>
<path d="M1792.93 395.5H1756.2V397.229H1792.93V395.5Z" fill="#E2E2E2"/>
<path d="M1777.8 401.479H1756.2V403.208H1777.8V401.479Z" fill="#E2E2E2"/>
<path d="M1788.61 407.458H1756.2V409.187H1788.61V407.458Z" fill="#E2E2E2"/>
<path d="M1745.97 382.678H1742.51V386.135H1745.97V382.678Z" fill="#E2E2E2"/>
<path d="M1745.97 388.657H1742.51V392.114H1745.97V388.657Z" fill="#6C63FF"/>
<path d="M1745.97 394.636H1742.51V398.093H1745.97V394.636Z" fill="#E2E2E2"/>
<path d="M1745.97 400.615H1742.51V404.072H1745.97V400.615Z" fill="#E2E2E2"/>
<path d="M1745.97 406.594H1742.51V410.051H1745.97V406.594Z" fill="#E2E2E2"/>
<path d="M1615.5 132.195H1411.64V209.23H1615.5V132.195Z" fill="white"/>
<path d="M1497.71 145.542H1448.78V148.338H1497.71V145.542Z" fill="#E6E6E6"/>
<path d="M1524.44 155.807H1448.73V158.603H1524.44V155.807Z" fill="#6C63FF"/>
<path d="M1508.15 165.479H1448.73V168.275H1508.15V165.479Z" fill="#E6E6E6"/>
<path d="M1483.68 175.15H1448.73V177.946H1483.68V175.15Z" fill="#E6E6E6"/>
<path d="M1501.16 184.822H1448.73V187.618H1501.16V184.822Z" fill="#E6E6E6"/>
<path d="M1432.19 144.738H1426.6V150.329H1432.19V144.738Z" fill="#E6E6E6"/>
<path d="M1432.19 154.409H1426.6V160.001H1432.19V154.409Z" fill="#6C63FF"/>
<path d="M1432.19 164.081H1426.6V169.673H1432.19V164.081Z" fill="#E6E6E6"/>
<path d="M1432.19 173.752H1426.6V179.344H1432.19V173.752Z" fill="#E6E6E6"/>
<path d="M1432.19 183.424H1426.6V189.016H1432.19V183.424Z" fill="#E6E6E6"/>
<path d="M1605.5 141.848H1555.44V191.906H1605.5V141.848Z" fill="#E6E6E6"/>
<path d="M1638.88 88H1393V98.446H1638.88V88Z" fill="#6C63FF"/>
<path d="M1400.76 95.4374C1401.92 95.4374 1402.86 94.4986 1402.86 93.3405C1402.86 92.1824 1401.92 91.2437 1400.76 91.2437C1399.6 91.2437 1398.67 92.1824 1398.67 93.3405C1398.67 94.4986 1399.6 95.4374 1400.76 95.4374Z" fill="white"/>
<path d="M1408.11 95.4374C1409.27 95.4374 1410.21 94.4986 1410.21 93.3405C1410.21 92.1824 1409.27 91.2437 1408.11 91.2437C1406.95 91.2437 1406.02 92.1824 1406.02 93.3405C1406.02 94.4986 1406.95 95.4374 1408.11 95.4374Z" fill="white"/>
<path d="M1415.46 95.4374C1416.62 95.4374 1417.56 94.4986 1417.56 93.3405C1417.56 92.1824 1416.62 91.2437 1415.46 91.2437C1414.3 91.2437 1413.36 92.1824 1413.36 93.3405C1413.36 94.4986 1414.3 95.4374 1415.46 95.4374Z" fill="white"/>
<defs>
<clipPath id="clip0_5_648">
<rect width="913.214" height="482.652" fill="white" transform="translate(378 984)"/>
</clipPath>
</defs>
</svg>
