<svg width="210" height="166" viewBox="0 0 210 166" fill="none" xmlns="http://www.w3.org/2000/svg">
<rect width="210" height="166" fill="black"/>
<path d="M78.3148 65H75.1444C74.9569 64.0881 74.6287 63.2869 74.16 62.5966C73.6998 61.9062 73.1373 61.3267 72.4725 60.858C71.8162 60.3807 71.0875 60.0227 70.2864 59.7841C69.4853 59.5455 68.65 59.4261 67.7807 59.4261C66.1955 59.4261 64.7594 59.8267 63.4725 60.6278C62.1941 61.429 61.1756 62.6094 60.4171 64.169C59.6671 65.7287 59.2921 67.642 59.2921 69.9091C59.2921 72.1761 59.6671 74.0895 60.4171 75.6491C61.1756 77.2088 62.1941 78.3892 63.4725 79.1903C64.7594 79.9915 66.1955 80.392 67.7807 80.392C68.65 80.392 69.4853 80.2727 70.2864 80.0341C71.0875 79.7955 71.8162 79.4418 72.4725 78.973C73.1373 78.4957 73.6998 77.9119 74.16 77.2216C74.6287 76.5227 74.9569 75.7216 75.1444 74.8182H78.3148C78.0762 76.1562 77.6415 77.3537 77.0108 78.4105C76.3802 79.4673 75.5961 80.3665 74.6586 81.108C73.7211 81.8409 72.6685 82.3991 71.5009 82.7827C70.3418 83.1662 69.1017 83.358 67.7807 83.358C65.5478 83.358 63.562 82.8125 61.8233 81.7216C60.0847 80.6307 58.7168 79.0795 57.7196 77.0682C56.7225 75.0568 56.2239 72.6705 56.2239 69.9091C56.2239 67.1477 56.7225 64.7614 57.7196 62.75C58.7168 60.7386 60.0847 59.1875 61.8233 58.0966C63.562 57.0057 65.5478 56.4602 67.7807 56.4602C69.1017 56.4602 70.3418 56.652 71.5009 57.0355C72.6685 57.419 73.7211 57.9815 74.6586 58.723C75.5961 59.456 76.3802 60.3509 77.0108 61.4077C77.6415 62.456 78.0762 63.6534 78.3148 65ZM85.2278 83.2045C84.5971 83.2045 84.0559 82.9787 83.6042 82.527C83.1525 82.0753 82.9267 81.5341 82.9267 80.9034C82.9267 80.2727 83.1525 79.7315 83.6042 79.2798C84.0559 78.8281 84.5971 78.6023 85.2278 78.6023C85.8585 78.6023 86.3997 78.8281 86.8514 79.2798C87.3031 79.7315 87.5289 80.2727 87.5289 80.9034C87.5289 81.321 87.4224 81.7045 87.2093 82.054C87.0048 82.4034 86.7278 82.6847 86.3784 82.8977C86.0375 83.1023 85.6539 83.2045 85.2278 83.2045ZM107.67 63.3636C107.517 62.0682 106.895 61.0625 105.804 60.3466C104.713 59.6307 103.375 59.2727 101.79 59.2727C100.631 59.2727 99.6163 59.4602 98.747 59.8352C97.8862 60.2102 97.2129 60.7259 96.7271 61.3821C96.2498 62.0384 96.0112 62.7841 96.0112 63.6193C96.0112 64.3182 96.1774 64.919 96.5098 65.4219C96.8507 65.9162 97.2853 66.3295 97.8137 66.6619C98.3422 66.9858 98.8961 67.2543 99.4757 67.4673C100.055 67.6719 100.588 67.8381 101.074 67.9659L103.733 68.6818C104.415 68.8608 105.173 69.108 106.008 69.4233C106.852 69.7386 107.657 70.169 108.425 70.7145C109.2 71.2514 109.839 71.9418 110.342 72.7855C110.845 73.6293 111.096 74.6648 111.096 75.892C111.096 77.3068 110.726 78.5852 109.984 79.7273C109.251 80.8693 108.177 81.777 106.763 82.4503C105.356 83.1236 103.648 83.4602 101.636 83.4602C99.7612 83.4602 98.1376 83.1577 96.7654 82.5526C95.4018 81.9474 94.3279 81.1037 93.5439 80.0213C92.7683 78.9389 92.3294 77.6818 92.2271 76.25H95.4998C95.585 77.2386 95.9174 78.0568 96.497 78.7045C97.085 79.3437 97.8265 79.821 98.7214 80.1364C99.6248 80.4432 100.596 80.5966 101.636 80.5966C102.846 80.5966 103.933 80.4006 104.896 80.0085C105.859 79.608 106.622 79.054 107.184 78.3466C107.747 77.6307 108.028 76.7955 108.028 75.8409C108.028 74.9716 107.785 74.2642 107.3 73.7188C106.814 73.1733 106.175 72.7301 105.382 72.3892C104.589 72.0483 103.733 71.75 102.812 71.4943L99.5907 70.5739C97.5453 69.9858 95.926 69.1463 94.7328 68.0554C93.5396 66.9645 92.943 65.5369 92.943 63.7727C92.943 62.3068 93.3393 61.0284 94.1319 59.9375C94.9331 58.8381 96.0069 57.9858 97.3535 57.3807C98.7086 56.767 100.221 56.4602 101.892 56.4602C103.579 56.4602 105.079 56.7628 106.392 57.3679C107.704 57.9645 108.744 58.7827 109.511 59.8224C110.287 60.8622 110.696 62.0426 110.738 63.3636H107.67ZM118.099 83.2045C117.468 83.2045 116.927 82.9787 116.475 82.527C116.024 82.0753 115.798 81.5341 115.798 80.9034C115.798 80.2727 116.024 79.7315 116.475 79.2798C116.927 78.8281 117.468 78.6023 118.099 78.6023C118.73 78.6023 119.271 78.8281 119.722 79.2798C120.174 79.7315 120.4 80.2727 120.4 80.9034C120.4 81.321 120.294 81.7045 120.08 82.054C119.876 82.4034 119.599 82.6847 119.249 82.8977C118.909 83.1023 118.525 83.2045 118.099 83.2045ZM140.541 63.3636C140.388 62.0682 139.766 61.0625 138.675 60.3466C137.584 59.6307 136.246 59.2727 134.661 59.2727C133.502 59.2727 132.487 59.4602 131.618 59.8352C130.757 60.2102 130.084 60.7259 129.598 61.3821C129.121 62.0384 128.882 62.7841 128.882 63.6193C128.882 64.3182 129.048 64.919 129.381 65.4219C129.722 65.9162 130.156 66.3295 130.685 66.6619C131.213 66.9858 131.767 67.2543 132.347 67.4673C132.926 67.6719 133.459 67.8381 133.945 67.9659L136.604 68.6818C137.286 68.8608 138.044 69.108 138.879 69.4233C139.723 69.7386 140.529 70.169 141.296 70.7145C142.071 71.2514 142.71 71.9418 143.213 72.7855C143.716 73.6293 143.968 74.6648 143.968 75.892C143.968 77.3068 143.597 78.5852 142.855 79.7273C142.122 80.8693 141.048 81.777 139.634 82.4503C138.227 83.1236 136.519 83.4602 134.507 83.4602C132.632 83.4602 131.009 83.1577 129.637 82.5526C128.273 81.9474 127.199 81.1037 126.415 80.0213C125.639 78.9389 125.2 77.6818 125.098 76.25H128.371C128.456 77.2386 128.789 78.0568 129.368 78.7045C129.956 79.3437 130.698 79.821 131.593 80.1364C132.496 80.4432 133.468 80.5966 134.507 80.5966C135.718 80.5966 136.804 80.4006 137.767 80.0085C138.73 79.608 139.493 79.054 140.056 78.3466C140.618 77.6307 140.899 76.7955 140.899 75.8409C140.899 74.9716 140.656 74.2642 140.171 73.7188C139.685 73.1733 139.046 72.7301 138.253 72.3892C137.46 72.0483 136.604 71.75 135.683 71.4943L132.462 70.5739C130.416 69.9858 128.797 69.1463 127.604 68.0554C126.411 66.9645 125.814 65.5369 125.814 63.7727C125.814 62.3068 126.21 61.0284 127.003 59.9375C127.804 58.8381 128.878 57.9858 130.225 57.3807C131.58 56.767 133.093 56.4602 134.763 56.4602C136.45 56.4602 137.95 56.7628 139.263 57.3679C140.575 57.9645 141.615 58.7827 142.382 59.8224C143.158 60.8622 143.567 62.0426 143.61 63.3636H140.541ZM150.97 83.2045C150.339 83.2045 149.798 82.9787 149.346 82.527C148.895 82.0753 148.669 81.5341 148.669 80.9034C148.669 80.2727 148.895 79.7315 149.346 79.2798C149.798 78.8281 150.339 78.6023 150.97 78.6023C151.601 78.6023 152.142 78.8281 152.594 79.2798C153.045 79.7315 153.271 80.2727 153.271 80.9034C153.271 81.321 153.165 81.7045 152.952 82.054C152.747 82.4034 152.47 82.6847 152.121 82.8977C151.78 83.1023 151.396 83.2045 150.97 83.2045Z" fill="white"/>
<path d="M53.0835 106H52.0266C51.9641 105.696 51.8548 105.429 51.6985 105.199C51.5451 104.969 51.3576 104.776 51.136 104.619C50.9173 104.46 50.6744 104.341 50.4073 104.261C50.1403 104.182 49.8619 104.142 49.5721 104.142C49.0437 104.142 48.565 104.276 48.136 104.543C47.7099 104.81 47.3704 105.203 47.1175 105.723C46.8675 106.243 46.7425 106.881 46.7425 107.636C46.7425 108.392 46.8675 109.03 47.1175 109.55C47.3704 110.07 47.7099 110.463 48.136 110.73C48.565 110.997 49.0437 111.131 49.5721 111.131C49.8619 111.131 50.1403 111.091 50.4073 111.011C50.6744 110.932 50.9173 110.814 51.136 110.658C51.3576 110.499 51.5451 110.304 51.6985 110.074C51.8548 109.841 51.9641 109.574 52.0266 109.273H53.0835C53.0039 109.719 52.859 110.118 52.6488 110.47C52.4386 110.822 52.1772 111.122 51.8647 111.369C51.5522 111.614 51.2013 111.8 50.8121 111.928C50.4258 112.055 50.0124 112.119 49.5721 112.119C48.8278 112.119 48.1658 111.938 47.5863 111.574C47.0067 111.21 46.5508 110.693 46.2184 110.023C45.886 109.352 45.7198 108.557 45.7198 107.636C45.7198 106.716 45.886 105.92 46.2184 105.25C46.5508 104.58 47.0067 104.062 47.5863 103.699C48.1658 103.335 48.8278 103.153 49.5721 103.153C50.0124 103.153 50.4258 103.217 50.8121 103.345C51.2013 103.473 51.5522 103.661 51.8647 103.908C52.1772 104.152 52.4386 104.45 52.6488 104.803C52.859 105.152 53.0039 105.551 53.0835 106ZM55.6605 103.273V112H54.6548V103.273H55.6605ZM60.1616 112.136C59.5707 112.136 59.0522 111.996 58.6062 111.714C58.163 111.433 57.8164 111.04 57.5664 110.534C57.3192 110.028 57.1957 109.437 57.1957 108.761C57.1957 108.08 57.3192 107.484 57.5664 106.976C57.8164 106.467 58.163 106.072 58.6062 105.791C59.0522 105.51 59.5707 105.369 60.1616 105.369C60.7525 105.369 61.2695 105.51 61.7127 105.791C62.1587 106.072 62.5053 106.467 62.7525 106.976C63.0025 107.484 63.1275 108.08 63.1275 108.761C63.1275 109.437 63.0025 110.028 62.7525 110.534C62.5053 111.04 62.1587 111.433 61.7127 111.714C61.2695 111.996 60.7525 112.136 60.1616 112.136ZM60.1616 111.233C60.6104 111.233 60.9798 111.118 61.2695 110.888C61.5593 110.658 61.7738 110.355 61.913 109.98C62.0522 109.605 62.1218 109.199 62.1218 108.761C62.1218 108.324 62.0522 107.916 61.913 107.538C61.7738 107.161 61.5593 106.855 61.2695 106.622C60.9798 106.389 60.6104 106.273 60.1616 106.273C59.7127 106.273 59.3434 106.389 59.0536 106.622C58.7638 106.855 58.5494 107.161 58.4102 107.538C58.271 107.916 58.2013 108.324 58.2013 108.761C58.2013 109.199 58.271 109.605 58.4102 109.98C58.5494 110.355 58.7638 110.658 59.0536 110.888C59.3434 111.118 59.7127 111.233 60.1616 111.233ZM68.7876 109.324V105.455H69.7933V112H68.7876V110.892H68.7195C68.5661 111.224 68.3274 111.507 68.0036 111.74C67.6797 111.97 67.2706 112.085 66.7763 112.085C66.3672 112.085 66.0036 111.996 65.6854 111.817C65.3672 111.635 65.1172 111.362 64.9354 110.999C64.7536 110.632 64.6626 110.17 64.6626 109.614V105.455H65.6683V109.545C65.6683 110.023 65.8018 110.403 66.0689 110.688C66.3388 110.972 66.6825 111.114 67.1001 111.114C67.3501 111.114 67.6044 111.05 67.8629 110.922C68.1243 110.794 68.343 110.598 68.5192 110.334C68.6982 110.07 68.7876 109.733 68.7876 109.324ZM74.1069 112.136C73.5614 112.136 73.0799 111.999 72.6623 111.723C72.2447 111.445 71.918 111.053 71.6822 110.547C71.4464 110.038 71.3285 109.438 71.3285 108.744C71.3285 108.057 71.4464 107.46 71.6822 106.955C71.918 106.449 72.2461 106.058 72.6665 105.783C73.087 105.507 73.5728 105.369 74.1239 105.369C74.5501 105.369 74.8867 105.44 75.1339 105.582C75.3839 105.722 75.5742 105.881 75.7049 106.06C75.8384 106.236 75.9421 106.381 76.016 106.494H76.1012V103.273H77.1069V112H76.1353V110.994H76.016C75.9421 111.114 75.837 111.264 75.7006 111.446C75.5643 111.625 75.3697 111.786 75.1168 111.928C74.864 112.067 74.5273 112.136 74.1069 112.136ZM74.2433 111.233C74.6467 111.233 74.9876 111.128 75.266 110.918C75.5444 110.705 75.756 110.411 75.9009 110.036C76.0458 109.658 76.1183 109.222 76.1183 108.727C76.1183 108.239 76.0472 107.811 75.9052 107.445C75.7631 107.075 75.5529 106.788 75.2745 106.584C74.9961 106.376 74.6523 106.273 74.2433 106.273C73.8171 106.273 73.462 106.382 73.1779 106.601C72.8967 106.817 72.685 107.111 72.543 107.483C72.4038 107.852 72.3342 108.267 72.3342 108.727C72.3342 109.193 72.4052 109.616 72.5472 109.997C72.6921 110.375 72.9052 110.676 73.1864 110.901C73.4705 111.122 73.8228 111.233 74.2433 111.233ZM87.3725 105.455C87.3214 105.023 87.114 104.688 86.7504 104.449C86.3867 104.21 85.9407 104.091 85.4123 104.091C85.0259 104.091 84.6879 104.153 84.3981 104.278C84.1112 104.403 83.8867 104.575 83.7248 104.794C83.5657 105.013 83.4862 105.261 83.4862 105.54C83.4862 105.773 83.5415 105.973 83.6523 106.141C83.766 106.305 83.9109 106.443 84.087 106.554C84.2631 106.662 84.4478 106.751 84.641 106.822C84.8342 106.891 85.0117 106.946 85.1737 106.989L86.06 107.227C86.2873 107.287 86.5401 107.369 86.8185 107.474C87.0998 107.58 87.3683 107.723 87.6239 107.905C87.8825 108.084 88.0955 108.314 88.2631 108.595C88.4308 108.876 88.5146 109.222 88.5146 109.631C88.5146 110.102 88.391 110.528 88.1438 110.909C87.8995 111.29 87.5415 111.592 87.07 111.817C86.6012 112.041 86.0316 112.153 85.3612 112.153C84.7362 112.153 84.195 112.053 83.7376 111.851C83.283 111.649 82.9251 111.368 82.6637 111.007C82.4052 110.646 82.2589 110.227 82.2248 109.75H83.3157C83.3441 110.08 83.4549 110.352 83.6481 110.568C83.8441 110.781 84.0913 110.94 84.3896 111.045C84.6907 111.148 85.0146 111.199 85.3612 111.199C85.7646 111.199 86.1268 111.134 86.4478 111.003C86.7688 110.869 87.0231 110.685 87.2106 110.449C87.3981 110.21 87.4918 109.932 87.4918 109.614C87.4918 109.324 87.4109 109.088 87.2489 108.906C87.087 108.724 86.8739 108.577 86.6097 108.463C86.3455 108.349 86.06 108.25 85.7532 108.165L84.6793 107.858C83.9975 107.662 83.4577 107.382 83.06 107.018C82.6623 106.655 82.4634 106.179 82.4634 105.591C82.4634 105.102 82.5955 104.676 82.8597 104.312C83.1268 103.946 83.4847 103.662 83.9336 103.46C84.3853 103.256 84.8896 103.153 85.4464 103.153C86.0089 103.153 86.5089 103.254 86.9464 103.456C87.3839 103.655 87.7305 103.928 87.9862 104.274C88.2447 104.621 88.381 105.014 88.3952 105.455H87.3725ZM92.8601 112.136C92.2294 112.136 91.6854 111.997 91.228 111.719C90.7734 111.438 90.4226 111.045 90.1754 110.543C89.9311 110.037 89.8089 109.449 89.8089 108.778C89.8089 108.108 89.9311 107.517 90.1754 107.006C90.4226 106.491 90.7663 106.091 91.2067 105.804C91.6499 105.514 92.1669 105.369 92.7578 105.369C93.0987 105.369 93.4354 105.426 93.7678 105.54C94.1001 105.653 94.4027 105.838 94.6754 106.094C94.9482 106.347 95.1655 106.682 95.3274 107.099C95.4893 107.517 95.5703 108.031 95.5703 108.642V109.068H90.5249V108.199H94.5476C94.5476 107.83 94.4737 107.5 94.326 107.21C94.1811 106.92 93.9737 106.692 93.7038 106.524C93.4368 106.357 93.1214 106.273 92.7578 106.273C92.3572 106.273 92.0107 106.372 91.718 106.571C91.4283 106.767 91.2053 107.023 91.049 107.338C90.8928 107.653 90.8146 107.991 90.8146 108.352V108.932C90.8146 109.426 90.8999 109.845 91.0703 110.189C91.2436 110.53 91.4837 110.79 91.7905 110.969C92.0973 111.145 92.4538 111.233 92.8601 111.233C93.1243 111.233 93.3629 111.196 93.576 111.122C93.7919 111.045 93.978 110.932 94.1342 110.781C94.2905 110.628 94.4112 110.437 94.4964 110.21L95.468 110.483C95.3658 110.812 95.1939 111.102 94.9524 111.352C94.7109 111.599 94.4126 111.793 94.0575 111.932C93.7024 112.068 93.3033 112.136 92.8601 112.136ZM99.7592 112.136C99.1456 112.136 98.6172 111.991 98.174 111.702C97.7308 111.412 97.3899 111.013 97.1513 110.504C96.9126 109.996 96.7933 109.415 96.7933 108.761C96.7933 108.097 96.9155 107.51 97.1598 107.001C97.407 106.49 97.7507 106.091 98.1911 105.804C98.6342 105.514 99.1513 105.369 99.7422 105.369C100.202 105.369 100.617 105.455 100.987 105.625C101.356 105.795 101.658 106.034 101.894 106.341C102.13 106.648 102.276 107.006 102.333 107.415H101.327C101.251 107.116 101.08 106.852 100.816 106.622C100.555 106.389 100.202 106.273 99.7592 106.273C99.3672 106.273 99.0234 106.375 98.728 106.58C98.4354 106.781 98.2067 107.067 98.0419 107.436C97.88 107.803 97.799 108.233 97.799 108.727C97.799 109.233 97.8786 109.673 98.0376 110.048C98.1996 110.423 98.4268 110.714 98.7195 110.922C99.0149 111.129 99.3615 111.233 99.7592 111.233C100.021 111.233 100.258 111.188 100.471 111.097C100.684 111.006 100.864 110.875 101.012 110.705C101.16 110.534 101.265 110.33 101.327 110.091H102.333C102.276 110.477 102.136 110.825 101.911 111.135C101.69 111.442 101.396 111.686 101.029 111.868C100.665 112.047 100.242 112.136 99.7592 112.136ZM107.928 109.324V105.455H108.934V112H107.928V110.892H107.86C107.707 111.224 107.468 111.507 107.144 111.74C106.82 111.97 106.411 112.085 105.917 112.085C105.508 112.085 105.144 111.996 104.826 111.817C104.508 111.635 104.258 111.362 104.076 110.999C103.894 110.632 103.803 110.17 103.803 109.614V105.455H104.809V109.545C104.809 110.023 104.942 110.403 105.21 110.688C105.479 110.972 105.823 111.114 106.241 111.114C106.491 111.114 106.745 111.05 107.004 110.922C107.265 110.794 107.484 110.598 107.66 110.334C107.839 110.07 107.928 109.733 107.928 109.324ZM110.776 112V105.455H111.748V106.443H111.816C111.935 106.119 112.151 105.857 112.463 105.655C112.776 105.453 113.128 105.352 113.52 105.352C113.594 105.352 113.686 105.354 113.797 105.357C113.908 105.359 113.992 105.364 114.049 105.369V106.392C114.015 106.384 113.936 106.371 113.814 106.354C113.695 106.334 113.569 106.324 113.435 106.324C113.117 106.324 112.833 106.391 112.583 106.524C112.336 106.655 112.14 106.837 111.995 107.07C111.853 107.3 111.782 107.562 111.782 107.858V112H110.776ZM115.241 112V105.455H116.246V112H115.241ZM115.752 104.364C115.556 104.364 115.387 104.297 115.245 104.163C115.106 104.03 115.036 103.869 115.036 103.682C115.036 103.494 115.106 103.334 115.245 103.2C115.387 103.067 115.556 103 115.752 103C115.948 103 116.116 103.067 116.255 103.2C116.397 103.334 116.468 103.494 116.468 103.682C116.468 103.869 116.397 104.03 116.255 104.163C116.116 104.297 115.948 104.364 115.752 104.364ZM120.935 105.455V106.307H117.543V105.455H120.935ZM118.532 103.886H119.537V110.125C119.537 110.409 119.578 110.622 119.661 110.764C119.746 110.903 119.854 110.997 119.985 111.045C120.118 111.091 120.259 111.114 120.407 111.114C120.517 111.114 120.608 111.108 120.679 111.097C120.75 111.082 120.807 111.071 120.85 111.062L121.054 111.966C120.986 111.991 120.891 112.017 120.769 112.043C120.647 112.071 120.492 112.085 120.304 112.085C120.02 112.085 119.742 112.024 119.469 111.902C119.199 111.78 118.975 111.594 118.796 111.344C118.62 111.094 118.532 110.778 118.532 110.398V103.886ZM123.096 114.455C122.925 114.455 122.773 114.44 122.64 114.412C122.506 114.386 122.414 114.361 122.363 114.335L122.618 113.449C122.863 113.511 123.078 113.534 123.266 113.517C123.453 113.5 123.62 113.416 123.765 113.266C123.912 113.118 124.047 112.878 124.169 112.545L124.357 112.034L121.936 105.455H123.027L124.834 110.67H124.902L126.709 105.455H127.8L125.022 112.955C124.897 113.293 124.742 113.572 124.557 113.794C124.373 114.018 124.158 114.185 123.914 114.293C123.672 114.401 123.4 114.455 123.096 114.455ZM137.412 105.455C137.36 105.023 137.153 104.688 136.789 104.449C136.426 104.21 135.98 104.091 135.451 104.091C135.065 104.091 134.727 104.153 134.437 104.278C134.15 104.403 133.926 104.575 133.764 104.794C133.605 105.013 133.525 105.261 133.525 105.54C133.525 105.773 133.581 105.973 133.691 106.141C133.805 106.305 133.95 106.443 134.126 106.554C134.302 106.662 134.487 106.751 134.68 106.822C134.873 106.891 135.051 106.946 135.213 106.989L136.099 107.227C136.326 107.287 136.579 107.369 136.858 107.474C137.139 107.58 137.407 107.723 137.663 107.905C137.922 108.084 138.135 108.314 138.302 108.595C138.47 108.876 138.554 109.222 138.554 109.631C138.554 110.102 138.43 110.528 138.183 110.909C137.939 111.29 137.581 111.592 137.109 111.817C136.64 112.041 136.071 112.153 135.4 112.153C134.775 112.153 134.234 112.053 133.777 111.851C133.322 111.649 132.964 111.368 132.703 111.007C132.444 110.646 132.298 110.227 132.264 109.75H133.355C133.383 110.08 133.494 110.352 133.687 110.568C133.883 110.781 134.13 110.94 134.429 111.045C134.73 111.148 135.054 111.199 135.4 111.199C135.804 111.199 136.166 111.134 136.487 111.003C136.808 110.869 137.062 110.685 137.25 110.449C137.437 110.21 137.531 109.932 137.531 109.614C137.531 109.324 137.45 109.088 137.288 108.906C137.126 108.724 136.913 108.577 136.649 108.463C136.385 108.349 136.099 108.25 135.792 108.165L134.718 107.858C134.037 107.662 133.497 107.382 133.099 107.018C132.701 106.655 132.502 106.179 132.502 105.591C132.502 105.102 132.635 104.676 132.899 104.312C133.166 103.946 133.524 103.662 133.973 103.46C134.424 103.256 134.929 103.153 135.485 103.153C136.048 103.153 136.548 103.254 136.985 103.456C137.423 103.655 137.77 103.928 138.025 104.274C138.284 104.621 138.42 105.014 138.434 105.455H137.412ZM140.155 114.455V105.455H141.126V106.494H141.246C141.32 106.381 141.422 106.236 141.553 106.06C141.686 105.881 141.876 105.722 142.124 105.582C142.374 105.44 142.712 105.369 143.138 105.369C143.689 105.369 144.175 105.507 144.595 105.783C145.016 106.058 145.344 106.449 145.58 106.955C145.815 107.46 145.933 108.057 145.933 108.744C145.933 109.438 145.815 110.038 145.58 110.547C145.344 111.053 145.017 111.445 144.599 111.723C144.182 111.999 143.7 112.136 143.155 112.136C142.734 112.136 142.398 112.067 142.145 111.928C141.892 111.786 141.697 111.625 141.561 111.446C141.425 111.264 141.32 111.114 141.246 110.994H141.161V114.455H140.155ZM141.143 108.727C141.143 109.222 141.216 109.658 141.361 110.036C141.506 110.411 141.717 110.705 141.996 110.918C142.274 111.128 142.615 111.233 143.018 111.233C143.439 111.233 143.79 111.122 144.071 110.901C144.355 110.676 144.568 110.375 144.71 109.997C144.855 109.616 144.928 109.193 144.928 108.727C144.928 108.267 144.857 107.852 144.714 107.483C144.575 107.111 144.364 106.817 144.08 106.601C143.798 106.382 143.445 106.273 143.018 106.273C142.609 106.273 142.266 106.376 141.987 106.584C141.709 106.788 141.499 107.075 141.357 107.445C141.214 107.811 141.143 108.239 141.143 108.727ZM149.393 112.153C148.979 112.153 148.602 112.075 148.264 111.919C147.926 111.76 147.658 111.531 147.459 111.233C147.26 110.932 147.161 110.568 147.161 110.142C147.161 109.767 147.234 109.463 147.382 109.23C147.53 108.994 147.727 108.81 147.974 108.676C148.222 108.543 148.494 108.443 148.793 108.378C149.094 108.31 149.396 108.256 149.7 108.216C150.098 108.165 150.42 108.126 150.668 108.101C150.918 108.072 151.099 108.026 151.213 107.96C151.33 107.895 151.388 107.781 151.388 107.619V107.585C151.388 107.165 151.273 106.838 151.043 106.605C150.815 106.372 150.47 106.256 150.007 106.256C149.527 106.256 149.151 106.361 148.878 106.571C148.605 106.781 148.413 107.006 148.303 107.244L147.348 106.903C147.518 106.506 147.746 106.196 148.03 105.974C148.317 105.75 148.629 105.594 148.967 105.506C149.308 105.415 149.643 105.369 149.973 105.369C150.183 105.369 150.425 105.395 150.697 105.446C150.973 105.494 151.239 105.595 151.494 105.749C151.753 105.902 151.967 106.134 152.138 106.443C152.308 106.753 152.393 107.168 152.393 107.688V112H151.388V111.114H151.337C151.268 111.256 151.155 111.408 150.996 111.57C150.837 111.732 150.625 111.869 150.361 111.983C150.097 112.097 149.774 112.153 149.393 112.153ZM149.547 111.25C149.945 111.25 150.28 111.172 150.553 111.016C150.828 110.859 151.036 110.658 151.175 110.411C151.317 110.163 151.388 109.903 151.388 109.631V108.71C151.345 108.761 151.251 108.808 151.107 108.851C150.964 108.891 150.8 108.926 150.612 108.957C150.428 108.986 150.247 109.011 150.071 109.034C149.898 109.054 149.757 109.071 149.649 109.085C149.388 109.119 149.143 109.175 148.916 109.251C148.692 109.325 148.51 109.437 148.371 109.588C148.234 109.736 148.166 109.937 148.166 110.193C148.166 110.543 148.295 110.807 148.554 110.986C148.815 111.162 149.146 111.25 149.547 111.25ZM156.888 112.136C156.275 112.136 155.746 111.991 155.303 111.702C154.86 111.412 154.519 111.013 154.28 110.504C154.042 109.996 153.922 109.415 153.922 108.761C153.922 108.097 154.044 107.51 154.289 107.001C154.536 106.49 154.88 106.091 155.32 105.804C155.763 105.514 156.28 105.369 156.871 105.369C157.331 105.369 157.746 105.455 158.115 105.625C158.485 105.795 158.787 106.034 159.023 106.341C159.259 106.648 159.405 107.006 159.462 107.415H158.456C158.38 107.116 158.209 106.852 157.945 106.622C157.684 106.389 157.331 106.273 156.888 106.273C156.496 106.273 156.152 106.375 155.857 106.58C155.564 106.781 155.336 107.067 155.171 107.436C155.009 107.803 154.928 108.233 154.928 108.727C154.928 109.233 155.007 109.673 155.167 110.048C155.328 110.423 155.556 110.714 155.848 110.922C156.144 111.129 156.49 111.233 156.888 111.233C157.15 111.233 157.387 111.188 157.6 111.097C157.813 111.006 157.993 110.875 158.141 110.705C158.289 110.534 158.394 110.33 158.456 110.091H159.462C159.405 110.477 159.265 110.825 159.04 111.135C158.819 111.442 158.525 111.686 158.158 111.868C157.794 112.047 157.371 112.136 156.888 112.136ZM163.676 112.136C163.046 112.136 162.502 111.997 162.044 111.719C161.59 111.438 161.239 111.045 160.992 110.543C160.748 110.037 160.625 109.449 160.625 108.778C160.625 108.108 160.748 107.517 160.992 107.006C161.239 106.491 161.583 106.091 162.023 105.804C162.466 105.514 162.983 105.369 163.574 105.369C163.915 105.369 164.252 105.426 164.584 105.54C164.917 105.653 165.219 105.838 165.492 106.094C165.765 106.347 165.982 106.682 166.144 107.099C166.306 107.517 166.387 108.031 166.387 108.642V109.068H161.341V108.199H165.364C165.364 107.83 165.29 107.5 165.142 107.21C164.998 106.92 164.79 106.692 164.52 106.524C164.253 106.357 163.938 106.273 163.574 106.273C163.174 106.273 162.827 106.372 162.534 106.571C162.245 106.767 162.022 107.023 161.865 107.338C161.709 107.653 161.631 107.991 161.631 108.352V108.932C161.631 109.426 161.716 109.845 161.887 110.189C162.06 110.53 162.3 110.79 162.607 110.969C162.914 111.145 163.27 111.233 163.676 111.233C163.941 111.233 164.179 111.196 164.392 111.122C164.608 111.045 164.794 110.932 164.951 110.781C165.107 110.628 165.228 110.437 165.313 110.21L166.284 110.483C166.182 110.812 166.01 111.102 165.769 111.352C165.527 111.599 165.229 111.793 164.874 111.932C164.519 112.068 164.12 112.136 163.676 112.136Z" fill="white"/>
</svg>
