<svg width="981" height="752" viewBox="0 0 981 752" fill="none" xmlns="http://www.w3.org/2000/svg">
<g clip-path="url(#clip0_7_71)">
<path d="M315.494 117H313.494V224H315.494V117Z" fill="#3F3D56"/>
<path d="M315.494 255.851H313.494V350H315.494V255.851Z" fill="#3F3D56"/>
<path d="M465.494 365H310.494V367H465.494V365Z" fill="#3F3D56"/>
<path d="M246.494 392H244.494V477H246.494V392Z" fill="#3F3D56"/>
<path d="M497.494 492H262.494V494H497.494V492Z" fill="#3F3D56"/>
<path d="M693.494 49H691.494V150H693.494V49Z" fill="#3F3D56"/>
<path d="M676.494 166H529.46V168H676.494V166Z" fill="#3F3D56"/>
<path d="M514.494 182H512.494V317H514.494V182Z" fill="#3F3D56"/>
<path d="M314.494 257C311.132 257 307.845 256.003 305.049 254.135C302.254 252.267 300.075 249.612 298.788 246.506C297.502 243.399 297.165 239.981 297.821 236.683C298.477 233.386 300.096 230.357 302.473 227.979C304.851 225.602 307.88 223.983 311.178 223.327C314.475 222.671 317.893 223.007 321 224.294C324.106 225.581 326.761 227.76 328.629 230.555C330.497 233.351 331.494 236.638 331.494 240C331.489 244.507 329.696 248.828 326.509 252.015C323.322 255.202 319.001 256.995 314.494 257V257ZM314.494 225C311.527 225 308.627 225.88 306.161 227.528C303.694 229.176 301.771 231.519 300.636 234.26C299.501 237.001 299.204 240.017 299.782 242.926C300.361 245.836 301.79 248.509 303.888 250.607C305.985 252.704 308.658 254.133 311.568 254.712C314.478 255.291 317.494 254.994 320.234 253.858C322.975 252.723 325.318 250.8 326.966 248.334C328.614 245.867 329.494 242.967 329.494 240C329.49 236.023 327.908 232.21 325.096 229.398C322.284 226.586 318.471 225.004 314.494 225V225Z" fill="#3F3D56"/>
<path d="M246.494 510C243.132 510 239.845 509.003 237.049 507.135C234.254 505.267 232.075 502.612 230.788 499.506C229.502 496.399 229.165 492.981 229.821 489.683C230.477 486.386 232.096 483.357 234.473 480.979C236.851 478.602 239.88 476.983 243.178 476.327C246.475 475.671 249.893 476.007 253 477.294C256.106 478.581 258.761 480.76 260.629 483.555C262.497 486.351 263.494 489.638 263.494 493C263.489 497.507 261.696 501.828 258.509 505.015C255.322 508.202 251.001 509.995 246.494 510V510ZM246.494 478C243.527 478 240.627 478.88 238.161 480.528C235.694 482.176 233.771 484.519 232.636 487.26C231.501 490.001 231.204 493.017 231.782 495.926C232.361 498.836 233.79 501.509 235.888 503.607C237.985 505.704 240.658 507.133 243.568 507.712C246.478 508.291 249.494 507.994 252.234 506.858C254.975 505.723 257.318 503.8 258.966 501.334C260.614 498.867 261.494 495.967 261.494 493C261.49 489.023 259.908 485.21 257.096 482.398C254.284 479.586 250.471 478.004 246.494 478V478Z" fill="#3F3D56"/>
<path d="M315.494 382C324.33 382 331.494 374.837 331.494 366C331.494 357.163 324.33 350 315.494 350C306.657 350 299.494 357.163 299.494 366C299.494 374.837 306.657 382 315.494 382Z" fill="#F47059"/>
<path d="M894.494 239H728.494V241H894.494V239Z" fill="#3F3D56"/>
<path d="M713.494 255.851H711.494V350H713.494V255.851Z" fill="#3F3D56"/>
<path d="M695.494 365H562.494V367H695.494V365Z" fill="#3F3D56"/>
<path d="M934.494 374H796.494V376H934.494V374Z" fill="#3F3D56"/>
<path d="M782.494 392H780.494V477H782.494V392Z" fill="#3F3D56"/>
<path d="M764.494 492H529.494V494H764.494V492Z" fill="#3F3D56"/>
<path d="M514.494 415H512.494V477H514.494V415Z" fill="#3F3D56"/>
<path d="M712.494 256C721.33 256 728.494 248.837 728.494 240C728.494 231.163 721.33 224 712.494 224C703.657 224 696.494 231.163 696.494 240C696.494 248.837 703.657 256 712.494 256Z" fill="#F47059"/>
<path d="M692.494 183C689.132 183 685.845 182.003 683.049 180.135C680.254 178.267 678.075 175.612 676.788 172.506C675.502 169.399 675.165 165.981 675.821 162.683C676.477 159.386 678.096 156.357 680.473 153.979C682.851 151.602 685.88 149.983 689.178 149.327C692.475 148.671 695.893 149.007 699 150.294C702.106 151.581 704.761 153.76 706.629 156.555C708.497 159.351 709.494 162.638 709.494 166C709.489 170.507 707.696 174.828 704.509 178.015C701.322 181.202 697.001 182.995 692.494 183V183ZM692.494 151C689.527 151 686.627 151.88 684.161 153.528C681.694 155.176 679.771 157.519 678.636 160.26C677.501 163.001 677.204 166.017 677.782 168.926C678.361 171.836 679.79 174.509 681.888 176.607C683.985 178.704 686.658 180.133 689.568 180.712C692.478 181.291 695.494 180.994 698.234 179.858C700.975 178.723 703.318 176.8 704.966 174.334C706.614 171.867 707.494 168.967 707.494 166C707.49 162.023 705.908 158.21 703.096 155.398C700.284 152.586 696.471 151.004 692.494 151V151Z" fill="#3F3D56"/>
<path d="M513.494 183C510.132 183 506.845 182.003 504.049 180.135C501.254 178.267 499.075 175.612 497.788 172.506C496.502 169.399 496.165 165.981 496.821 162.683C497.477 159.386 499.096 156.357 501.473 153.979C503.851 151.602 506.88 149.983 510.178 149.327C513.475 148.671 516.893 149.007 520 150.294C523.106 151.581 525.761 153.76 527.629 156.555C529.497 159.351 530.494 162.638 530.494 166C530.489 170.507 528.696 174.828 525.509 178.015C522.322 181.202 518.001 182.995 513.494 183V183ZM513.494 151C510.527 151 507.627 151.88 505.161 153.528C502.694 155.176 500.771 157.519 499.636 160.26C498.501 163.001 498.204 166.017 498.782 168.926C499.361 171.836 500.79 174.509 502.888 176.607C504.985 178.704 507.658 180.133 510.568 180.712C513.478 181.291 516.494 180.994 519.234 179.858C521.975 178.723 524.318 176.8 525.966 174.334C527.614 171.867 528.494 168.967 528.494 166C528.49 162.023 526.908 158.21 524.096 155.398C521.284 152.586 517.471 151.004 513.494 151V151Z" fill="#3F3D56"/>
<path d="M780.494 393C777.132 393 773.845 392.003 771.049 390.135C768.254 388.267 766.075 385.612 764.788 382.506C763.502 379.399 763.165 375.981 763.821 372.683C764.477 369.386 766.096 366.357 768.473 363.979C770.851 361.602 773.88 359.983 777.178 359.327C780.475 358.671 783.893 359.007 787 360.294C790.106 361.581 792.761 363.76 794.629 366.555C796.497 369.351 797.494 372.638 797.494 376C797.489 380.507 795.696 384.828 792.509 388.015C789.322 391.202 785.001 392.995 780.494 393V393ZM780.494 361C777.527 361 774.627 361.88 772.161 363.528C769.694 365.176 767.771 367.519 766.636 370.26C765.501 373.001 765.204 376.017 765.782 378.926C766.361 381.836 767.79 384.509 769.888 386.607C771.985 388.704 774.658 390.133 777.568 390.712C780.478 391.291 783.494 390.994 786.234 389.858C788.975 388.723 791.318 386.8 792.966 384.334C794.614 381.867 795.494 378.967 795.494 376C795.49 372.023 793.908 368.21 791.096 365.398C788.284 362.586 784.471 361.004 780.494 361V361Z" fill="#3F3D56"/>
<path d="M780.494 509C789.33 509 796.494 501.837 796.494 493C796.494 484.163 789.33 477 780.494 477C771.657 477 764.494 484.163 764.494 493C764.494 501.837 771.657 509 780.494 509Z" fill="#F47059"/>
<path d="M513.494 510C510.132 510 506.845 509.003 504.049 507.135C501.254 505.267 499.075 502.612 497.788 499.506C496.502 496.399 496.165 492.981 496.821 489.683C497.477 486.386 499.096 483.357 501.473 480.979C503.851 478.602 506.88 476.983 510.178 476.327C513.475 475.671 516.893 476.007 520 477.294C523.106 478.581 525.761 480.76 527.629 483.555C529.497 486.351 530.494 489.638 530.494 493C530.489 497.507 528.696 501.828 525.509 505.015C522.322 508.202 518.001 509.995 513.494 510V510ZM513.494 478C510.527 478 507.627 478.88 505.161 480.528C502.694 482.176 500.771 484.519 499.636 487.26C498.501 490.001 498.204 493.017 498.782 495.926C499.361 498.836 500.79 501.509 502.888 503.607C504.985 505.704 507.658 507.133 510.568 507.712C513.478 508.291 516.494 507.994 519.234 506.858C521.975 505.723 524.318 503.8 525.966 501.334C527.614 498.867 528.494 495.967 528.494 493C528.49 489.023 526.908 485.21 524.096 482.398C521.284 479.586 517.471 478.004 513.494 478V478Z" fill="#3F3D56"/>
<path d="M711.494 383C708.132 383 704.845 382.003 702.049 380.135C699.254 378.267 697.075 375.612 695.788 372.506C694.502 369.399 694.165 365.981 694.821 362.683C695.477 359.386 697.096 356.357 699.473 353.979C701.851 351.602 704.88 349.983 708.178 349.327C711.475 348.671 714.893 349.007 718 350.294C721.106 351.581 723.761 353.76 725.629 356.555C727.497 359.351 728.494 362.638 728.494 366C728.489 370.507 726.696 374.828 723.509 378.015C720.322 381.202 716.001 382.995 711.494 383V383ZM711.494 351C708.527 351 705.627 351.88 703.161 353.528C700.694 355.176 698.771 357.519 697.636 360.26C696.501 363.001 696.204 366.017 696.782 368.926C697.361 371.836 698.79 374.509 700.888 376.607C702.985 378.704 705.658 380.133 708.568 380.712C711.478 381.291 714.494 380.994 717.234 379.858C719.975 378.723 722.318 376.8 723.966 374.334C725.614 371.867 726.494 368.967 726.494 366C726.49 362.023 724.908 358.21 722.096 355.398C719.284 352.586 715.471 351.004 711.494 351V351Z" fill="#3F3D56"/>
<path d="M246.494 342C242.538 342 238.671 343.173 235.382 345.371C232.093 347.568 229.53 350.692 228.016 354.346C226.502 358.001 226.106 362.022 226.878 365.902C227.65 369.781 229.554 373.345 232.352 376.142C235.149 378.939 238.712 380.844 242.592 381.616C246.471 382.387 250.493 381.991 254.147 380.478C257.802 378.964 260.925 376.4 263.123 373.111C265.321 369.822 266.494 365.956 266.494 362C266.478 356.7 264.366 351.622 260.619 347.875C256.871 344.128 251.793 342.016 246.494 342V342ZM246.494 348C247.68 348 248.84 348.352 249.827 349.011C250.814 349.67 251.583 350.608 252.037 351.704C252.491 352.8 252.61 354.007 252.378 355.171C252.147 356.334 251.575 357.404 250.736 358.243C249.897 359.082 248.828 359.653 247.664 359.885C246.5 360.116 245.294 359.997 244.198 359.543C243.101 359.089 242.164 358.32 241.505 357.333C240.846 356.347 240.494 355.187 240.494 354C240.499 352.41 241.133 350.887 242.257 349.763C243.381 348.639 244.904 348.005 246.494 348V348ZM246.494 376.885C244.123 376.874 241.792 376.285 239.701 375.169C237.609 374.053 235.822 372.444 234.494 370.481C234.59 366.481 242.494 364.279 246.494 364.279C250.494 364.279 258.398 366.481 258.494 370.481C257.164 372.442 255.376 374.05 253.285 375.166C251.195 376.282 248.863 376.872 246.494 376.885V376.885Z" fill="#F47059"/>
<path d="M315.494 69C311.538 69 307.671 70.173 304.382 72.3706C301.093 74.5682 298.53 77.6918 297.016 81.3463C295.502 85.0009 295.106 89.0222 295.878 92.9018C296.65 96.7814 298.554 100.345 301.352 103.142C304.149 105.939 307.712 107.844 311.592 108.616C315.471 109.387 319.493 108.991 323.147 107.478C326.802 105.964 329.925 103.4 332.123 100.111C334.321 96.8224 335.494 92.9556 335.494 89C335.478 83.7004 333.366 78.6224 329.619 74.875C325.871 71.1276 320.793 69.0155 315.494 69V69ZM315.494 75C316.68 75 317.84 75.3519 318.827 76.0112C319.814 76.6705 320.583 77.6075 321.037 78.7039C321.491 79.8003 321.61 81.0067 321.378 82.1705C321.147 83.3344 320.575 84.4035 319.736 85.2426C318.897 86.0818 317.828 86.6532 316.664 86.8847C315.5 87.1162 314.294 86.9974 313.198 86.5433C312.101 86.0891 311.164 85.3201 310.505 84.3334C309.846 83.3467 309.494 82.1867 309.494 81C309.499 79.4103 310.133 77.8873 311.257 76.7632C312.381 75.6392 313.904 75.0053 315.494 75V75ZM315.494 103.885C313.123 103.874 310.792 103.285 308.701 102.169C306.609 101.053 304.822 99.4438 303.494 97.4808C303.59 93.4808 311.494 91.2789 315.494 91.2789C319.494 91.2789 327.398 93.4808 327.494 97.4808C326.164 99.4423 324.376 101.05 322.285 102.166C320.195 103.282 317.863 103.872 315.494 103.885V103.885Z" fill="#F47059"/>
<path d="M692.494 0C688.538 0 684.671 1.17298 681.382 3.37061C678.093 5.56824 675.53 8.69181 674.016 12.3463C672.503 16.0009 672.106 20.0222 672.878 23.9018C673.65 27.7814 675.555 31.3451 678.352 34.1421C681.149 36.9392 684.712 38.844 688.592 39.6157C692.472 40.3874 696.493 39.9913 700.148 38.4776C703.802 36.9638 706.926 34.4004 709.123 31.1114C711.321 27.8224 712.494 23.9556 712.494 20C712.478 14.7004 710.366 9.62237 706.619 5.875C702.872 2.12763 697.793 0.0155124 692.494 0V0ZM692.494 6C693.681 6 694.841 6.3519 695.827 7.01118C696.814 7.67047 697.583 8.60755 698.037 9.7039C698.491 10.8003 698.61 12.0067 698.379 13.1705C698.147 14.3344 697.576 15.4035 696.737 16.2426C695.897 17.0818 694.828 17.6532 693.664 17.8847C692.501 18.1162 691.294 17.9974 690.198 17.5433C689.101 17.0892 688.164 16.3201 687.505 15.3334C686.846 14.3467 686.494 13.1867 686.494 12C686.499 10.4103 687.133 8.88729 688.257 7.76322C689.381 6.63915 690.904 6.00531 692.494 6V6ZM692.494 34.8846C690.124 34.8738 687.792 34.2849 685.701 33.169C683.61 32.053 681.822 30.4438 680.494 28.4808C680.59 24.4808 688.494 22.2789 692.494 22.2789C696.494 22.2789 704.398 24.4808 704.494 28.4808C703.164 30.4423 701.376 32.0504 699.286 33.1662C697.195 34.2819 694.864 34.8717 692.494 34.8846Z" fill="#F47059"/>
<path d="M922.494 219C918.538 219 914.671 220.173 911.382 222.371C908.093 224.568 905.53 227.692 904.016 231.346C902.503 235.001 902.106 239.022 902.878 242.902C903.65 246.781 905.555 250.345 908.352 253.142C911.149 255.939 914.712 257.844 918.592 258.616C922.472 259.387 926.493 258.991 930.148 257.478C933.802 255.964 936.926 253.4 939.123 250.111C941.321 246.822 942.494 242.956 942.494 239C942.478 233.7 940.366 228.622 936.619 224.875C932.872 221.128 927.793 219.016 922.494 219ZM922.494 225C923.681 225 924.841 225.352 925.827 226.011C926.814 226.67 927.583 227.608 928.037 228.704C928.491 229.8 928.61 231.007 928.379 232.171C928.147 233.334 927.576 234.404 926.736 235.243C925.897 236.082 924.828 236.653 923.664 236.885C922.501 237.116 921.294 236.997 920.198 236.543C919.101 236.089 918.164 235.32 917.505 234.333C916.846 233.347 916.494 232.187 916.494 231C916.499 229.41 917.133 227.887 918.257 226.763C919.381 225.639 920.904 225.005 922.494 225ZM922.494 253.885C920.124 253.874 917.792 253.285 915.701 252.169C913.61 251.053 911.822 249.444 910.494 247.481C910.59 243.481 918.494 241.279 922.494 241.279C926.494 241.279 934.398 243.481 934.494 247.481C933.164 249.442 931.376 251.05 929.286 252.166C927.195 253.282 924.864 253.872 922.494 253.885V253.885Z" fill="#F47059"/>
<path d="M960.494 354C956.538 354 952.671 355.173 949.382 357.371C946.094 359.568 943.53 362.692 942.016 366.346C940.503 370.001 940.107 374.022 940.878 377.902C941.65 381.781 943.555 385.345 946.352 388.142C949.149 390.939 952.712 392.844 956.592 393.616C960.472 394.387 964.493 393.991 968.148 392.478C971.802 390.964 974.926 388.4 977.123 385.111C979.321 381.822 980.494 377.956 980.494 374C980.478 368.7 978.366 363.622 974.619 359.875C970.872 356.128 965.793 354.016 960.494 354V354ZM960.494 360C961.681 360 962.841 360.352 963.827 361.011C964.814 361.67 965.583 362.608 966.037 363.704C966.491 364.8 966.61 366.007 966.379 367.171C966.147 368.334 965.576 369.404 964.736 370.243C963.897 371.082 962.828 371.653 961.664 371.885C960.501 372.116 959.294 371.997 958.198 371.543C957.101 371.089 956.164 370.32 955.505 369.333C954.846 368.347 954.494 367.187 954.494 366C954.499 364.41 955.133 362.887 956.257 361.763C957.381 360.639 958.904 360.005 960.494 360V360ZM960.494 388.885C958.124 388.874 955.792 388.285 953.701 387.169C951.61 386.053 949.822 384.444 948.494 382.481C948.59 378.481 956.494 376.279 960.494 376.279C964.494 376.279 972.398 378.481 972.494 382.481C971.164 384.442 969.376 386.05 967.286 387.166C965.195 388.282 962.864 388.872 960.494 388.885V388.885Z" fill="#F47059"/>
<path d="M514.772 353.667L512.723 361.882C515.046 362.461 522.206 364.822 523.366 360.173C524.575 355.326 517.095 354.246 514.772 353.667Z" fill="#6C63FF"/>
<path d="M511.69 366.027L509.43 375.085C512.219 375.778 520.822 378.54 522.094 373.43C523.423 368.102 514.479 366.723 511.69 366.027Z" fill="#6C63FF"/>
<path d="M524.034 329.211C516.839 327.417 509.273 327.797 502.294 330.303C495.315 332.809 489.236 337.328 484.825 343.288C480.414 349.249 477.87 356.384 477.514 363.791C477.158 371.197 479.006 378.543 482.825 384.9C486.644 391.256 492.262 396.337 498.969 399.5C505.676 402.664 513.17 403.767 520.504 402.672C527.838 401.576 534.682 398.33 540.171 393.344C545.66 388.359 549.548 381.857 551.342 374.662C552.534 369.885 552.773 364.919 552.046 360.05C551.319 355.18 549.639 350.501 547.103 346.28C544.567 342.059 541.225 338.379 537.266 335.451C533.308 332.522 528.812 330.402 524.034 329.211V329.211ZM531.496 360.248C530.955 363.901 528.931 365.67 526.242 366.289C529.933 368.21 531.812 371.158 530.022 376.268C527.802 382.613 522.525 383.149 515.51 381.821L513.807 388.645L509.692 387.62L511.372 380.887C510.276 380.616 509.183 380.333 508.093 380.037L506.407 386.801L502.297 385.775L504 378.939C503.039 378.693 502.063 378.431 501.067 378.182L495.713 376.846L497.755 372.137C497.755 372.137 500.787 372.944 500.746 372.884C500.934 372.945 501.132 372.967 501.329 372.951C501.525 372.934 501.717 372.879 501.892 372.788C502.067 372.697 502.223 372.572 502.349 372.421C502.476 372.27 502.572 372.095 502.631 371.906L505.322 361.119C505.473 361.156 505.62 361.192 505.756 361.227C505.617 361.173 505.474 361.127 505.329 361.09L507.248 353.389C507.305 352.819 507.136 352.249 506.778 351.802C506.419 351.355 505.9 351.066 505.331 350.997C505.396 350.953 502.343 350.254 502.343 350.254L503.438 345.859L509.113 347.276L509.108 347.297C509.961 347.509 510.84 347.71 511.736 347.914L513.422 341.157L517.534 342.182L515.882 348.807C516.986 349.059 518.097 349.313 519.179 349.582L520.82 343.001L524.934 344.026L523.249 350.786C528.443 352.575 532.242 355.257 531.496 360.248V360.248Z" fill="#F47059"/>
<path d="M152 733.294C149.154 759.17 -0.226103 756.998 0.000256996 733.293C2.84564 707.418 152.226 709.59 152 733.294Z" fill="#E6E6E6"/>
<path d="M103.754 668.156L109.81 681.276L120.911 680.267L127.976 657.054L116.874 650.999L103.754 668.156Z" fill="#FFB8B8"/>
<path d="M65.6418 698.373L65.4028 707.516L82.5598 708.525V697.424L65.6418 698.373Z" fill="#FFB8B8"/>
<path d="M71.4578 531.908L75.4948 612.647L65.4028 700.451L95.6798 704.488L114.856 593.472L120.911 517.778L71.4578 531.908Z" fill="#2F2E41"/>
<path d="M24.0241 502.64C24.0241 502.64 11.9131 582.37 37.1443 608.61C62.3754 634.851 96.6897 681.276 96.6897 681.276L120.912 650.999L59.3476 585.398L71.4586 540.991L120.912 517.778L112.838 462.27L40.172 461.261L24.0241 502.64Z" fill="#2F2E41"/>
<path d="M83.5691 317.948C95.8317 317.948 105.772 308.007 105.772 295.744C105.772 283.482 95.8317 273.541 83.5691 273.541C71.3065 273.541 61.3657 283.482 61.3657 295.744C61.3657 308.007 71.3065 317.948 83.5691 317.948Z" fill="#FFB8B8"/>
<path d="M64.3939 300.791C64.3939 300.791 63.3847 332.077 58.3384 336.114C53.2922 340.151 76.5049 357.308 76.5049 357.308L91.6435 333.086V310.883L64.3939 300.791Z" fill="#FFB8B8"/>
<path d="M74.4858 343.179L62.2328 324.677L55.3098 334.096L45.2178 362.355L53.2918 472.362L100.726 473.371L106.782 347.216L91.6428 329.05L74.4858 343.179Z" fill="#D0CDE1"/>
<path d="M125.958 350.244L134.032 349.234C134.032 349.234 136.05 350.244 137.059 357.308C138.069 364.373 150.18 426.946 150.18 426.946L134.032 503.649L115.865 479.427L126.967 437.039L115.865 394.65L125.958 350.244Z" fill="#F47059"/>
<path d="M23.0148 349.234H16.9588L1.8208 430.983L15.9498 494.566L30.0788 471.353L26.0418 446.122L28.0608 423.919L35.1258 410.798L23.0148 349.234Z" fill="#F47059"/>
<path d="M112.837 677.239C112.837 677.239 106.782 675.22 106.782 679.257C106.782 683.294 110.819 695.405 110.819 695.405C110.819 695.405 104.763 732.747 113.846 730.729C122.93 728.71 129.994 711.553 131.004 706.507C132.013 701.461 137.059 675.22 137.059 675.22C137.059 675.22 145.133 656.045 140.087 655.035C135.041 654.026 120.911 649.989 120.911 649.989C120.911 649.989 128.985 675.22 112.837 677.239Z" fill="#2F2E41"/>
<path d="M83.5694 708.525C83.5694 708.525 67.4215 698.433 64.3938 706.507C62.3857 712.396 61.0319 718.488 60.3568 724.673C60.3568 724.673 56.3198 737.793 72.4677 735.775C88.6156 733.756 86.5971 733.756 87.6064 727.701C88.6156 721.645 83.5694 708.525 83.5694 708.525Z" fill="#2F2E41"/>
<path d="M70.4493 295.745L74.4863 294.735C74.4863 294.735 77.5141 277.578 84.5788 279.597C91.6435 281.615 109.81 283.634 109.81 275.56C109.81 267.486 92.6527 260.421 82.5603 261.43C72.4679 262.44 55.3107 265.467 56.32 280.606C57.3292 295.745 63.8416 310.471 63.8416 310.471L64.3676 301.496L70.4493 295.745Z" fill="#2F2E41"/>
<path d="M91.6428 355.29L74.4858 343.179L91.6428 329.05L97.5998 336.197L91.6428 355.29Z" fill="#D0CDE1"/>
<path d="M59.3471 354.281L74.4861 343.179L62.3751 325.013L55.3101 334.096L59.3471 354.281Z" fill="#D0CDE1"/>
<path d="M133.022 349.234L100.727 336.114L93.1572 330.563L70.4492 430.983L55.3105 385.567L59.8521 327.536L17.9685 349.234L32.0979 417.863L34.1164 444.103L28.0609 465.298C28.0609 465.298 6.86681 480.436 13.9315 496.584C20.9962 512.732 29.0702 513.741 29.0702 513.741C29.0702 513.741 63.3845 481.445 65.403 473.371C67.4215 465.297 70.4492 451.168 70.4492 451.168C70.4492 451.168 87.6064 515.76 107.791 514.75C127.976 513.741 127.976 492.547 127.976 492.547L122.93 470.344L114.856 447.131L118.893 408.78L133.022 349.234Z" fill="#F47059"/>
</g>
<defs>
<clipPath id="clip0_7_71">
<rect width="980.494" height="751.895" fill="white"/>
</clipPath>
</defs>
</svg>
