<svg width="1042" height="619" viewBox="0 0 1042 619" fill="none" xmlns="http://www.w3.org/2000/svg">
<path d="M855.567 619H240.605C107.935 619 0 515.299 0 387.834C0 260.368 107.935 156.668 240.605 156.668H284.355C308.424 110.298 345.514 71.0679 391.574 43.2599C438.308 15.0261 492.616 0.0154479 548.086 0C701.95 0 830.197 114.323 842.133 261.113H855.567C958.366 261.113 1042 341.387 1042 440.057C1042 538.726 958.366 619 855.567 619ZM240.605 166.404C113.617 166.404 10.3043 265.737 10.3043 387.834C10.3043 509.93 113.617 609.264 240.605 609.264H855.567C952.685 609.264 1031.7 533.358 1031.7 440.057C1031.7 346.755 952.685 270.85 855.567 270.85H832.476L832.181 266.278C822.898 122.423 698.108 9.73627 548.086 9.73627C440.057 9.73627 339.626 70.1471 292.227 163.639L290.825 166.404H240.605Z" fill="#F47059"/>
<g clip-path="url(#clip0_3_195)">
<path d="M290.341 541.028C292.741 541.773 295.317 541.959 297.822 541.57C300.327 541.18 302.676 540.227 304.643 538.803C309.652 535.09 311.223 528.976 312.501 523.312L316.28 506.56L308.367 511.371C302.676 514.832 296.857 518.403 292.917 523.415C288.977 528.426 287.258 535.268 290.423 540.691" fill="#E6E6E6"/>
<path d="M291.563 562.475C290.567 556.068 289.542 549.577 290.243 543.101C290.863 537.349 292.851 531.733 296.896 527.125C299.044 524.685 301.657 522.594 304.618 520.946C305.39 520.516 306.101 521.596 305.332 522.025C300.208 524.884 296.245 529.106 294.014 534.083C291.55 539.617 291.154 545.65 291.579 551.528C291.835 555.083 292.38 558.615 292.928 562.143C292.971 562.302 292.944 562.47 292.852 562.613C292.761 562.756 292.611 562.862 292.434 562.911C292.253 562.954 292.06 562.932 291.897 562.851C291.734 562.769 291.614 562.634 291.564 562.475L291.563 562.475Z" fill="#F2F2F2"/>
<path d="M298.732 552.194C299.761 553.575 301.176 554.699 302.84 555.458C304.503 556.217 306.361 556.584 308.232 556.525C313.042 556.323 317.05 553.36 320.659 550.546L331.333 542.223L324.269 541.925C319.188 541.71 313.977 541.508 309.138 542.893C304.299 544.278 299.836 547.606 298.951 552.029" fill="#E6E6E6"/>
<path d="M288.748 566.159C293.543 558.667 299.104 550.34 309.042 547.679C311.805 546.942 314.703 546.677 317.578 546.901C318.485 546.97 318.258 548.203 317.354 548.134C312.534 547.781 307.723 548.905 303.731 551.317C299.89 553.626 296.9 556.835 294.369 560.239C292.818 562.324 291.429 564.497 290.04 566.668C289.597 567.361 288.299 566.86 288.748 566.159Z" fill="#F2F2F2"/>
<path d="M770.768 549.947C769.373 551.051 767.68 551.818 765.852 552.176C764.024 552.534 762.122 552.47 760.33 551.99C755.738 550.71 752.72 546.94 750.046 543.405L742.135 532.95L749.052 534.256C754.025 535.195 759.122 536.176 763.4 538.607C767.677 541.038 771.028 545.263 770.603 549.739" fill="#E6E6E6"/>
<path d="M776.379 565.702C773.911 557.376 770.944 548.071 762.107 543.255C759.649 541.919 756.924 541.01 754.08 540.577C753.183 540.439 753.045 541.682 753.939 541.82C758.702 542.566 763.027 544.738 766.188 547.971C769.233 551.07 771.196 554.848 772.658 558.71C773.553 561.076 774.267 563.49 774.982 565.902C775.21 566.673 776.61 566.481 776.379 565.702Z" fill="#F2F2F2"/>
<path d="M679.206 443.786H517.535C516.244 443.785 515.006 443.331 514.093 442.525C513.18 441.719 512.667 440.626 512.665 439.486V391.325C512.667 390.185 513.18 389.092 514.093 388.286C515.006 387.48 516.244 387.026 517.535 387.025H679.206C680.497 387.026 681.735 387.48 682.648 388.286C683.561 389.092 684.074 390.185 684.076 391.325V439.486C684.074 440.626 683.561 441.719 682.648 442.525C681.735 443.331 680.497 443.785 679.206 443.786Z" fill="#F1F1F1"/>
<path d="M679.206 443.786H517.535C516.244 443.785 515.006 443.331 514.093 442.525C513.18 441.719 512.667 440.626 512.665 439.486V391.325C512.667 390.185 513.18 389.092 514.093 388.286C515.006 387.48 516.244 387.026 517.535 387.025H679.206C680.497 387.026 681.735 387.48 682.648 388.286C683.561 389.092 684.074 390.185 684.076 391.325V439.486C684.074 440.626 683.561 441.719 682.648 442.525C681.735 443.331 680.497 443.785 679.206 443.786Z" fill="#F47059"/>
<path d="M580.84 399.925H537.987V404.225H580.84V399.925Z" fill="#6C63FF"/>
<path d="M637.328 405.085C638.941 405.085 640.249 403.93 640.249 402.505C640.249 401.08 638.941 399.925 637.328 399.925C635.714 399.925 634.406 401.08 634.406 402.505C634.406 403.93 635.714 405.085 637.328 405.085Z" fill="#6C63FF"/>
<path d="M647.067 405.085C648.68 405.085 649.989 403.93 649.989 402.505C649.989 401.08 648.68 399.925 647.067 399.925C645.453 399.925 644.145 401.08 644.145 402.505C644.145 403.93 645.453 405.085 647.067 405.085Z" fill="#6C63FF"/>
<path d="M656.806 405.085C658.42 405.085 659.728 403.93 659.728 402.505C659.728 401.08 658.42 399.925 656.806 399.925C655.192 399.925 653.884 401.08 653.884 402.505C653.884 403.93 655.192 405.085 656.806 405.085Z" fill="#6C63FF"/>
<path d="M679.206 504.847H517.535C516.244 504.845 515.006 504.392 514.093 503.586C513.18 502.78 512.667 501.687 512.665 500.547V452.386C512.667 451.246 513.18 450.153 514.093 449.347C515.006 448.541 516.244 448.087 517.535 448.086H679.206C680.497 448.087 681.735 448.541 682.648 449.347C683.561 450.153 684.074 451.246 684.076 452.386V500.547C684.074 501.687 683.561 502.78 682.648 503.586C681.735 504.392 680.497 504.845 679.206 504.847V504.847Z" fill="#F47059"/>
<path d="M580.84 460.986H537.987V465.286H580.84V460.986Z" fill="#6C63FF"/>
<path d="M637.328 466.146C638.941 466.146 640.249 464.991 640.249 463.566C640.249 462.141 638.941 460.986 637.328 460.986C635.714 460.986 634.406 462.141 634.406 463.566C634.406 464.991 635.714 466.146 637.328 466.146Z" fill="#6C63FF"/>
<path d="M647.067 466.146C648.68 466.146 649.989 464.991 649.989 463.566C649.989 462.141 648.68 460.986 647.067 460.986C645.453 460.986 644.145 462.141 644.145 463.566C644.145 464.991 645.453 466.146 647.067 466.146Z" fill="#6C63FF"/>
<path d="M656.806 466.146C658.42 466.146 659.728 464.991 659.728 463.566C659.728 462.141 658.42 460.986 656.806 460.986C655.192 460.986 653.884 462.141 653.884 463.566C653.884 464.991 655.192 466.146 656.806 466.146Z" fill="#6C63FF"/>
<path d="M679.206 565.907H517.535C516.244 565.906 515.006 565.453 514.093 564.646C513.18 563.84 512.667 562.747 512.665 561.607V513.447C512.667 512.307 513.18 511.214 514.093 510.408C515.006 509.601 516.244 509.148 517.535 509.147H679.206C680.497 509.148 681.735 509.601 682.648 510.408C683.561 511.214 684.074 512.307 684.076 513.447V561.607C684.074 562.747 683.561 563.84 682.648 564.646C681.735 565.453 680.497 565.906 679.206 565.907V565.907Z" fill="#F47059"/>
<path d="M580.84 522.047H537.987V526.347H580.84V522.047Z" fill="#6C63FF"/>
<path d="M637.328 527.207C638.941 527.207 640.249 526.052 640.249 524.627C640.249 523.202 638.941 522.047 637.328 522.047C635.714 522.047 634.406 523.202 634.406 524.627C634.406 526.052 635.714 527.207 637.328 527.207Z" fill="#6C63FF"/>
<path d="M647.067 527.207C648.68 527.207 649.989 526.052 649.989 524.627C649.989 523.202 648.68 522.047 647.067 522.047C645.453 522.047 644.145 523.202 644.145 524.627C644.145 526.052 645.453 527.207 647.067 527.207Z" fill="#6C63FF"/>
<path d="M656.806 527.207C658.42 527.207 659.728 526.052 659.728 524.627C659.728 523.202 658.42 522.047 656.806 522.047C655.192 522.047 653.884 523.202 653.884 524.627C653.884 526.052 655.192 527.207 656.806 527.207Z" fill="#6C63FF"/>
<path d="M618.258 339.997L618.079 339.88L618.075 339.877C617.844 339.726 617.582 339.617 617.304 339.555C617.025 339.493 616.735 339.48 616.451 339.517C616.167 339.554 615.894 339.64 615.647 339.771C615.401 339.901 615.186 340.073 615.015 340.277L578.625 383.542H574.621V382.711C574.621 382.506 574.529 382.31 574.365 382.165C574.201 382.02 573.978 381.939 573.746 381.939H571.357C571.125 381.939 570.903 382.02 570.739 382.165C570.575 382.31 570.482 382.506 570.482 382.711V383.542H569.1V382.711C569.1 382.506 569.008 382.31 568.844 382.165C568.679 382.02 568.457 381.939 568.225 381.939H565.836C565.604 381.939 565.382 382.02 565.218 382.165C565.053 382.31 564.961 382.506 564.961 382.711V383.542H563.583V382.711C563.583 382.506 563.491 382.31 563.327 382.165C563.163 382.02 562.94 381.939 562.708 381.939H560.32C560.088 381.939 559.865 382.02 559.701 382.165C559.537 382.31 559.445 382.506 559.445 382.711V383.542H558.062V382.711C558.062 382.506 557.97 382.31 557.806 382.165C557.642 382.02 557.419 381.939 557.187 381.939H554.799C554.566 381.939 554.344 382.02 554.18 382.165C554.016 382.31 553.924 382.506 553.924 382.711V383.542H552.546V382.711C552.546 382.506 552.453 382.31 552.289 382.165C552.125 382.02 551.903 381.939 551.671 381.939H549.282C549.167 381.938 549.053 381.958 548.947 381.997C548.841 382.036 548.744 382.093 548.663 382.165C548.582 382.237 548.518 382.322 548.474 382.415C548.43 382.509 548.407 382.61 548.407 382.711V383.542H547.025V382.711C547.025 382.506 546.932 382.31 546.768 382.165C546.604 382.02 546.382 381.939 546.15 381.939H543.761C543.529 381.939 543.306 382.02 543.142 382.165C542.978 382.31 542.886 382.506 542.886 382.711V383.542H541.503V382.711C541.503 382.506 541.411 382.31 541.247 382.165C541.083 382.02 540.861 381.939 540.628 381.939H538.24C538.008 381.939 537.785 382.02 537.621 382.165C537.457 382.31 537.365 382.506 537.365 382.711V383.542H535.987V382.711C535.987 382.506 535.895 382.31 535.731 382.165C535.566 382.02 535.344 381.939 535.112 381.939H532.723C532.491 381.939 532.269 382.02 532.105 382.165C531.94 382.31 531.848 382.506 531.848 382.711V383.542H530.466V382.711C530.466 382.506 530.374 382.31 530.209 382.165C530.045 382.02 529.823 381.939 529.591 381.939H527.202C526.97 381.939 526.748 382.02 526.583 382.165C526.419 382.31 526.327 382.506 526.327 382.711V383.542H524.949V382.711C524.949 382.506 524.857 382.31 524.693 382.165C524.529 382.02 524.306 381.939 524.074 381.939H521.686C521.453 381.939 521.231 382.02 521.067 382.165C520.903 382.31 520.811 382.506 520.811 382.711V383.542H519.078C518.791 383.542 518.506 383.592 518.241 383.689C517.976 383.786 517.735 383.928 517.531 384.107C517.328 384.287 517.167 384.5 517.057 384.734C516.947 384.968 516.891 385.22 516.891 385.473V387.316C516.891 387.57 516.947 387.821 517.057 388.055C517.167 388.29 517.328 388.502 517.531 388.682C517.735 388.861 517.976 389.003 518.241 389.101C518.506 389.198 518.791 389.248 519.078 389.248H578.261C579.011 389.247 579.738 389.019 580.319 388.601C580.9 388.184 581.301 387.602 581.453 386.954L581.475 386.968L618.707 342.703L618.71 342.699C619.056 342.288 619.202 341.772 619.118 341.265C619.033 340.759 618.724 340.302 618.258 339.997V339.997Z" fill="#3F3D56"/>
<path d="M388.276 549.501L395.628 552.823L413.636 529.366L402.787 524.463L388.276 549.501Z" fill="#FFB7B7"/>
<path d="M387.63 546.534L402.107 553.077L402.108 553.077C404.554 554.183 406.403 556.102 407.248 558.411C408.093 560.721 407.864 563.233 406.612 565.393L406.458 565.658L382.755 554.946L387.63 546.534Z" fill="#2F2E41"/>
<path d="M473.18 558.589H481.439L485.367 530.463H473.179L473.18 558.589Z" fill="#FFB7B7"/>
<path d="M471.074 556.209L487.337 556.208H487.337C490.086 556.208 492.722 557.172 494.666 558.889C496.609 560.605 497.701 562.933 497.702 565.36V565.657L471.074 565.658L471.074 556.209Z" fill="#2F2E41"/>
<path d="M434.553 329.166C434.553 329.166 429.023 325.424 429.023 334.563L428.149 364.761L437.9 393.289L443.575 384.037L441.247 363.99L434.553 329.166Z" fill="#2F2E41"/>
<path d="M493.707 411.764C493.707 411.764 500.12 439.34 491.997 461.972L487.508 548.986L471.049 547.853L465.278 483.3L459.721 451.213L448.178 480.469L410.13 542.379L392.603 530.299C392.603 530.299 412.026 483.5 426.375 473.674L433.572 401.295L493.707 411.764Z" fill="#2F2E41"/>
<path d="M490.664 283.673C495.636 275.642 492.293 265.573 483.199 261.183C474.105 256.793 462.702 259.745 457.73 267.776C452.759 275.806 456.101 285.875 465.196 290.265C474.29 294.655 485.693 291.704 490.664 283.673Z" fill="#FFB7B7"/>
<path d="M472.869 279.239C475.119 279.498 476.816 277.465 477.603 275.586C478.39 273.708 478.99 271.52 480.946 270.505C483.618 269.119 487.037 270.786 490.093 270.329C493.544 269.812 495.787 266.583 495.963 263.496C496.139 260.409 494.748 257.44 493.383 254.594L492.906 258.131C492.97 256.932 492.684 255.739 492.077 254.666C491.469 253.592 490.559 252.674 489.435 252L490.049 257.19C489.919 256.474 489.629 255.788 489.197 255.171C488.766 254.554 488.2 254.018 487.533 253.595C486.867 253.171 486.112 252.868 485.312 252.703C484.512 252.538 483.683 252.514 482.873 252.632L482.97 255.724C478.984 255.306 474.963 254.887 470.965 255.206C466.968 255.524 462.942 256.641 459.912 258.966C455.38 262.444 453.725 268.17 454.281 273.449C454.836 278.728 457.304 283.688 459.876 288.479C460.523 289.684 461.419 291.044 462.919 291.198C464.267 291.336 465.501 290.34 465.92 289.2C466.243 288.031 466.231 286.808 465.884 285.644C465.505 283.865 465.027 282.046 465.383 280.263C465.74 278.48 467.192 276.718 469.228 276.499C471.263 276.281 473.346 278.335 472.368 279.926L472.869 279.239Z" fill="#2F2E41"/>
<path d="M494.868 419.139L432.225 415.57L436.94 398.32L494.194 409.622L494.868 419.139Z" fill="#CBCBCB"/>
<path d="M456.236 298.325L460.165 293.508C460.165 293.508 464.557 294.825 476.318 299.995L477.149 304.508L497.565 415.392L460.456 413.978L450.351 413.789L447.044 407.243L442.966 413.65L433.097 413.464L423.056 408.324L432.952 381.595L436.153 357.18L431.205 334.177C431.205 334.177 424.979 313.055 448.96 301.666L456.236 298.325Z" fill="#2F2E41"/>
<path d="M539.877 382.264C538.968 382.468 538.02 382.494 537.099 382.339C536.178 382.184 535.306 381.853 534.546 381.369C533.785 380.884 533.154 380.259 532.697 379.536C532.24 378.813 531.968 378.01 531.9 377.184L509.884 371.977L518.741 365.033L538.29 371.043C539.869 371.034 541.396 371.537 542.582 372.457C543.769 373.376 544.532 374.648 544.728 376.031C544.924 377.414 544.538 378.813 543.644 379.962C542.75 381.111 541.409 381.93 539.877 382.264V382.264Z" fill="#FFB7B7"/>
<path d="M530.016 379.325C529.553 379.547 529.042 379.681 528.517 379.718C527.991 379.755 527.463 379.694 526.966 379.538L490.749 367.4C481.913 364.634 474.516 359.129 469.933 351.908L454.83 328.117C453.77 327.071 452.953 325.852 452.427 324.527C451.901 323.203 451.676 321.8 451.764 320.398C451.853 318.997 452.254 317.625 452.944 316.361C453.633 315.096 454.599 313.964 455.785 313.03C456.97 312.095 458.353 311.376 459.854 310.914C461.355 310.452 462.944 310.256 464.531 310.336C466.118 310.417 467.671 310.773 469.101 311.385C470.532 311.996 471.812 312.851 472.868 313.9L499.01 350.487L531.908 367.519C532.553 367.892 533.052 368.432 533.338 369.064C533.625 369.696 533.684 370.391 533.509 371.054L531.873 377.176C531.697 377.832 531.299 378.426 530.731 378.877C530.514 379.051 530.274 379.201 530.016 379.325V379.325Z" fill="#2F2E41"/>
</g>
<defs>
<clipPath id="clip0_3_195">
<rect width="578" height="315" fill="white" transform="translate(232 252)"/>
</clipPath>
</defs>
</svg>
