<svg width="96" height="90" viewBox="0 0 96 90" fill="none" xmlns="http://www.w3.org/2000/svg">
<path d="M48.5 86C52.0899 86 55 79.732 55 72C55 64.268 52.0899 58 48.5 58C44.9101 58 42 64.268 42 72C42 79.732 44.9101 86 48.5 86Z" fill="url(#paint0_linear_4_296)"/>
<path d="M71 90L26 89.7214V88.9449C26 80.6749 32.5432 79.0035 40.6236 79H56.373C64.45 79 70.9966 80.661 70.9966 88.931L71 90Z" fill="url(#paint1_linear_4_296)"/>
<path d="M21.432 42L19.5697 41.872C11.3252 41.3074 5.58677 38.5273 2.50585 33.6039C-3.3806 24.2002 2.91205 10.628 3.19432 10.0503L3.69003 9H24L21.432 42ZM6.16164 12.5678C4.90518 15.7287 1.68657 25.3195 5.73479 31.7856C7.93102 35.2877 12.0481 37.4212 17.9896 38.14L19.9655 12.5613L6.16164 12.5678Z" fill="url(#paint2_linear_4_296)"/>
<path d="M74.5786 42L72 9H92.3118L92.8075 10.0502C93.0795 10.6246 99.383 24.1921 93.496 33.5982C90.4183 38.5211 84.6794 41.3075 76.4376 41.8786L74.5786 42ZM76.0314 12.5642L78.0316 38.1371C83.9736 37.4151 88.0876 35.2786 90.284 31.7734C94.3326 25.3047 91.0999 15.7182 89.8399 12.5576L76.0314 12.5642Z" fill="url(#paint3_linear_4_296)"/>
<path d="M48.0239 70C40.6003 70.0026 33.4795 67.1541 28.228 62.0808C22.9764 57.0076 20.0241 50.1252 20.0205 42.9475L20 0.0264532L75.9795 0L76 42.921C76.0036 50.0988 73.0583 56.9839 67.8119 62.0621C62.5654 67.1403 55.4476 69.9956 48.0239 70Z" fill="url(#paint4_linear_4_296)"/>
<path d="M48.5 85C52.0899 85 55 78.732 55 71C55 63.268 52.0899 57 48.5 57C44.9101 57 42 63.268 42 71C42 78.732 44.9101 85 48.5 85Z" fill="#F47059"/>
<path d="M22.5731 43L20.7879 42.875C12.8826 42.3288 7.37345 39.6309 4.40383 34.8569C-1.24186 25.7366 4.79294 12.576 5.05235 12.0199L5.52682 11H25L22.5731 43ZM7.91275 14.4547C6.70783 17.5178 3.61533 26.819 7.50314 33.0901C9.60918 36.4855 13.5584 38.555 19.2587 39.2525L21.1532 14.4547H7.91275Z" fill="#F47059"/>
<path d="M73.4725 43L71 11H90.4559L90.9334 12.0199C91.1926 12.5758 97.2357 25.7318 91.6154 34.8544C88.6689 39.6279 83.1681 42.3289 75.2697 42.8849L73.4725 43ZM74.8639 14.4576L76.7805 39.2562C82.4724 38.5555 86.4181 36.4829 88.5189 33.0845C92.3998 26.8108 89.2998 17.5171 88.0926 14.451L74.8639 14.4576Z" fill="#F47059"/>
<path opacity="0.05" d="M75 11L76 11.0343L75.9127 13.9629L75.004 14L75 11Z" fill="black"/>
<path opacity="0.1" d="M48.5016 58C45.8182 58 43.5746 62.8818 43 69.4238C44.7259 69.8079 46.4847 70.0009 48.248 69.9999V69.9999C50.1835 70.0052 52.1133 69.7765 54 69.3181C53.4158 62.8204 51.1786 57.9966 48.5016 58Z" fill="black"/>
<path d="M21 1H75V42.0886C75 45.4913 74.3016 48.8607 72.9448 52.0045C71.5879 55.1482 69.5991 58.0046 67.0919 60.4107C64.5847 62.8168 61.6083 64.7255 58.3325 66.0276C55.0567 67.3298 51.5457 68 48 68V68C40.8392 68 33.9716 65.2701 28.9081 60.4107C23.8446 55.5514 21 48.9607 21 42.0886V1V1Z" fill="#F47059"/>
<path opacity="0.1" d="M23.1635 43.0966L23.1465 2H21L21.017 43.0966C21.0206 49.9695 23.8576 56.5596 28.9041 61.4173C33.9506 66.2751 40.7931 69.0026 47.9267 69V69C48.2868 69 48.6434 69 49 68.9771C42.0578 68.7134 35.4909 65.8717 30.6747 61.0474C25.8586 56.223 23.1669 49.7903 23.1635 43.0966V43.0966Z" fill="white"/>
<path opacity="0.1" d="M53 79H43C44.0262 83.1987 45.8828 86.0034 48.0017 86C50.1206 85.9966 51.9671 83.2088 53 79Z" fill="black"/>
<path d="M70 88.9839L26 89C26 82.2508 31.8438 80 39.0213 80H56.965C64.1597 80 69.9966 82.2573 69.9966 88.9903L70 88.9839Z" fill="#F47059"/>
<path opacity="0.1" d="M43 78H41.1752C32.781 78 25.9964 81.0057 26 89H27.8248C27.8102 81.0057 34.6131 78.0035 43 78Z" fill="white"/>
<defs>
<linearGradient id="paint0_linear_4_296" x1="48.4865" y1="86.0186" x2="48.478" y2="58.0217" gradientUnits="userSpaceOnUse">
<stop stop-color="#808080" stop-opacity="0.25"/>
<stop offset="0.54" stop-color="#808080" stop-opacity="0.12"/>
<stop offset="1" stop-color="#808080" stop-opacity="0.1"/>
</linearGradient>
<linearGradient id="paint1_linear_4_296" x1="48.4816" y1="90.0311" x2="48.4776" y2="79.0067" gradientUnits="userSpaceOnUse">
<stop stop-color="#808080" stop-opacity="0.25"/>
<stop offset="0.54" stop-color="#808080" stop-opacity="0.12"/>
<stop offset="1" stop-color="#808080" stop-opacity="0.1"/>
</linearGradient>
<linearGradient id="paint2_linear_4_296" x1="11.9843" y1="42.0217" x2="11.9733" y2="9.01837" gradientUnits="userSpaceOnUse">
<stop stop-color="#808080" stop-opacity="0.25"/>
<stop offset="0.54" stop-color="#808080" stop-opacity="0.12"/>
<stop offset="1" stop-color="#808080" stop-opacity="0.1"/>
</linearGradient>
<linearGradient id="paint3_linear_4_296" x1="83.9924" y1="42.0175" x2="83.9815" y2="9.01746" gradientUnits="userSpaceOnUse">
<stop stop-color="#808080" stop-opacity="0.25"/>
<stop offset="0.54" stop-color="#808080" stop-opacity="0.12"/>
<stop offset="1" stop-color="#808080" stop-opacity="0.1"/>
</linearGradient>
<linearGradient id="paint4_linear_4_296" x1="48.0047" y1="70.0197" x2="47.9811" y2="0.0329225" gradientUnits="userSpaceOnUse">
<stop stop-color="#808080" stop-opacity="0.25"/>
<stop offset="0.54" stop-color="#808080" stop-opacity="0.12"/>
<stop offset="1" stop-color="#808080" stop-opacity="0.1"/>
</linearGradient>
</defs>
</svg>
