<svg width="210" height="57" viewBox="0 0 210 57" fill="none" xmlns="http://www.w3.org/2000/svg">
<rect width="210" height="57" fill="black"/>
<path d="M78.3148 23H75.1444C74.9569 22.0881 74.6287 21.2869 74.16 20.5966C73.6998 19.9062 73.1373 19.3267 72.4725 18.858C71.8162 18.3807 71.0875 18.0227 70.2864 17.7841C69.4853 17.5455 68.65 17.4261 67.7807 17.4261C66.1955 17.4261 64.7594 17.8267 63.4725 18.6278C62.1941 19.429 61.1756 20.6094 60.4171 22.169C59.6671 23.7287 59.2921 25.642 59.2921 27.9091C59.2921 30.1761 59.6671 32.0895 60.4171 33.6491C61.1756 35.2088 62.1941 36.3892 63.4725 37.1903C64.7594 37.9915 66.1955 38.392 67.7807 38.392C68.65 38.392 69.4853 38.2727 70.2864 38.0341C71.0875 37.7955 71.8162 37.4418 72.4725 36.973C73.1373 36.4957 73.6998 35.9119 74.16 35.2216C74.6287 34.5227 74.9569 33.7216 75.1444 32.8182H78.3148C78.0762 34.1562 77.6415 35.3537 77.0108 36.4105C76.3802 37.4673 75.5961 38.3665 74.6586 39.108C73.7211 39.8409 72.6685 40.3991 71.5009 40.7827C70.3418 41.1662 69.1017 41.358 67.7807 41.358C65.5478 41.358 63.562 40.8125 61.8233 39.7216C60.0847 38.6307 58.7168 37.0795 57.7196 35.0682C56.7225 33.0568 56.2239 30.6705 56.2239 27.9091C56.2239 25.1477 56.7225 22.7614 57.7196 20.75C58.7168 18.7386 60.0847 17.1875 61.8233 16.0966C63.562 15.0057 65.5478 14.4602 67.7807 14.4602C69.1017 14.4602 70.3418 14.652 71.5009 15.0355C72.6685 15.419 73.7211 15.9815 74.6586 16.723C75.5961 17.456 76.3802 18.3509 77.0108 19.4077C77.6415 20.456 78.0762 21.6534 78.3148 23ZM85.2278 41.2045C84.5971 41.2045 84.0559 40.9787 83.6042 40.527C83.1525 40.0753 82.9267 39.5341 82.9267 38.9034C82.9267 38.2727 83.1525 37.7315 83.6042 37.2798C84.0559 36.8281 84.5971 36.6023 85.2278 36.6023C85.8585 36.6023 86.3997 36.8281 86.8514 37.2798C87.3031 37.7315 87.5289 38.2727 87.5289 38.9034C87.5289 39.321 87.4224 39.7045 87.2093 40.054C87.0048 40.4034 86.7278 40.6847 86.3784 40.8977C86.0375 41.1023 85.6539 41.2045 85.2278 41.2045ZM107.67 21.3636C107.517 20.0682 106.895 19.0625 105.804 18.3466C104.713 17.6307 103.375 17.2727 101.79 17.2727C100.631 17.2727 99.6163 17.4602 98.747 17.8352C97.8862 18.2102 97.2129 18.7259 96.7271 19.3821C96.2498 20.0384 96.0112 20.7841 96.0112 21.6193C96.0112 22.3182 96.1774 22.919 96.5098 23.4219C96.8507 23.9162 97.2853 24.3295 97.8137 24.6619C98.3422 24.9858 98.8961 25.2543 99.4757 25.4673C100.055 25.6719 100.588 25.8381 101.074 25.9659L103.733 26.6818C104.415 26.8608 105.173 27.108 106.008 27.4233C106.852 27.7386 107.657 28.169 108.425 28.7145C109.2 29.2514 109.839 29.9418 110.342 30.7855C110.845 31.6293 111.096 32.6648 111.096 33.892C111.096 35.3068 110.726 36.5852 109.984 37.7273C109.251 38.8693 108.177 39.777 106.763 40.4503C105.356 41.1236 103.648 41.4602 101.636 41.4602C99.7612 41.4602 98.1376 41.1577 96.7654 40.5526C95.4018 39.9474 94.3279 39.1037 93.5439 38.0213C92.7683 36.9389 92.3294 35.6818 92.2271 34.25H95.4998C95.585 35.2386 95.9174 36.0568 96.497 36.7045C97.085 37.3437 97.8265 37.821 98.7214 38.1364C99.6248 38.4432 100.596 38.5966 101.636 38.5966C102.846 38.5966 103.933 38.4006 104.896 38.0085C105.859 37.608 106.622 37.054 107.184 36.3466C107.747 35.6307 108.028 34.7955 108.028 33.8409C108.028 32.9716 107.785 32.2642 107.3 31.7188C106.814 31.1733 106.175 30.7301 105.382 30.3892C104.589 30.0483 103.733 29.75 102.812 29.4943L99.5907 28.5739C97.5453 27.9858 95.926 27.1463 94.7328 26.0554C93.5396 24.9645 92.943 23.5369 92.943 21.7727C92.943 20.3068 93.3393 19.0284 94.1319 17.9375C94.9331 16.8381 96.0069 15.9858 97.3535 15.3807C98.7086 14.767 100.221 14.4602 101.892 14.4602C103.579 14.4602 105.079 14.7628 106.392 15.3679C107.704 15.9645 108.744 16.7827 109.511 17.8224C110.287 18.8622 110.696 20.0426 110.738 21.3636H107.67ZM118.099 41.2045C117.468 41.2045 116.927 40.9787 116.475 40.527C116.024 40.0753 115.798 39.5341 115.798 38.9034C115.798 38.2727 116.024 37.7315 116.475 37.2798C116.927 36.8281 117.468 36.6023 118.099 36.6023C118.73 36.6023 119.271 36.8281 119.722 37.2798C120.174 37.7315 120.4 38.2727 120.4 38.9034C120.4 39.321 120.294 39.7045 120.08 40.054C119.876 40.4034 119.599 40.6847 119.249 40.8977C118.909 41.1023 118.525 41.2045 118.099 41.2045ZM140.541 21.3636C140.388 20.0682 139.766 19.0625 138.675 18.3466C137.584 17.6307 136.246 17.2727 134.661 17.2727C133.502 17.2727 132.487 17.4602 131.618 17.8352C130.757 18.2102 130.084 18.7259 129.598 19.3821C129.121 20.0384 128.882 20.7841 128.882 21.6193C128.882 22.3182 129.048 22.919 129.381 23.4219C129.722 23.9162 130.156 24.3295 130.685 24.6619C131.213 24.9858 131.767 25.2543 132.347 25.4673C132.926 25.6719 133.459 25.8381 133.945 25.9659L136.604 26.6818C137.286 26.8608 138.044 27.108 138.879 27.4233C139.723 27.7386 140.529 28.169 141.296 28.7145C142.071 29.2514 142.71 29.9418 143.213 30.7855C143.716 31.6293 143.968 32.6648 143.968 33.892C143.968 35.3068 143.597 36.5852 142.855 37.7273C142.122 38.8693 141.048 39.777 139.634 40.4503C138.227 41.1236 136.519 41.4602 134.507 41.4602C132.632 41.4602 131.009 41.1577 129.637 40.5526C128.273 39.9474 127.199 39.1037 126.415 38.0213C125.639 36.9389 125.2 35.6818 125.098 34.25H128.371C128.456 35.2386 128.789 36.0568 129.368 36.7045C129.956 37.3437 130.698 37.821 131.593 38.1364C132.496 38.4432 133.468 38.5966 134.507 38.5966C135.718 38.5966 136.804 38.4006 137.767 38.0085C138.73 37.608 139.493 37.054 140.056 36.3466C140.618 35.6307 140.899 34.7955 140.899 33.8409C140.899 32.9716 140.656 32.2642 140.171 31.7188C139.685 31.1733 139.046 30.7301 138.253 30.3892C137.46 30.0483 136.604 29.75 135.683 29.4943L132.462 28.5739C130.416 27.9858 128.797 27.1463 127.604 26.0554C126.411 24.9645 125.814 23.5369 125.814 21.7727C125.814 20.3068 126.21 19.0284 127.003 17.9375C127.804 16.8381 128.878 15.9858 130.225 15.3807C131.58 14.767 133.093 14.4602 134.763 14.4602C136.45 14.4602 137.95 14.7628 139.263 15.3679C140.575 15.9645 141.615 16.7827 142.382 17.8224C143.158 18.8622 143.567 20.0426 143.61 21.3636H140.541ZM150.97 41.2045C150.339 41.2045 149.798 40.9787 149.346 40.527C148.895 40.0753 148.669 39.5341 148.669 38.9034C148.669 38.2727 148.895 37.7315 149.346 37.2798C149.798 36.8281 150.339 36.6023 150.97 36.6023C151.601 36.6023 152.142 36.8281 152.594 37.2798C153.045 37.7315 153.271 38.2727 153.271 38.9034C153.271 39.321 153.165 39.7045 152.952 40.054C152.747 40.4034 152.47 40.6847 152.121 40.8977C151.78 41.1023 151.396 41.2045 150.97 41.2045Z" fill="white"/>
</svg>
