<svg width="820" height="584" viewBox="0 0 820 584" fill="none" xmlns="http://www.w3.org/2000/svg">
<g clip-path="url(#clip0_10_24)">
<path d="M747.902 525.359C755.085 538.057 748.994 580.945 748.994 580.945C748.994 580.945 709.103 564.059 701.92 551.366C698.479 545.269 697.6 538.056 699.475 531.31C701.35 524.565 705.826 518.84 711.92 515.393C718.013 511.947 725.226 511.06 731.973 512.929C738.72 514.798 744.449 519.269 747.902 525.359V525.359Z" fill="#47CF7D"/>
<path d="M749.572 580.89L748.725 581.069C740.563 542.29 712.059 515.993 711.772 515.732L712.355 515.092C712.644 515.355 741.351 541.83 749.572 580.89Z" fill="#027530"/>
<path d="M813.173 539.818C803.425 557.501 748.467 581.456 748.467 581.456C748.467 581.456 739.406 522.193 749.148 504.515C753.83 496.025 761.692 489.742 771.006 487.049C780.32 484.356 790.322 485.473 798.812 490.154C807.302 494.836 813.585 502.698 816.278 512.012C818.971 521.326 817.855 531.328 813.173 539.818Z" fill="#47CF7D"/>
<path d="M748.952 582.098L748.126 581.229C787.895 543.46 798.19 490.784 798.29 490.256L799.468 490.477C799.368 491.009 789.01 544.055 748.952 582.098Z" fill="#027530"/>
<path d="M192.566 405.919C186.276 405.898 180.014 405.088 173.926 403.508L172.726 403.176L171.613 402.618C131.371 382.442 97.4212 355.791 70.7061 323.407C48.5915 296.442 31.35 265.827 19.7569 232.937C5.89329 193.559 -0.776461 152.01 0.0660381 110.272C0.0830381 109.396 0.0974255 108.72 0.0974255 108.254C0.0974255 87.9645 11.3594 70.1623 28.7886 62.9C42.1281 57.3419 163.244 7.59478 171.995 4.00041C188.475 -4.25731 206.057 2.63506 208.871 3.84035C215.181 6.4206 327.146 52.2153 351.341 63.7366C376.277 75.6107 382.93 96.9422 382.93 107.674C382.93 156.263 374.515 201.672 357.919 242.642C344.516 275.804 325.519 306.419 301.757 333.153C255.91 384.747 210.051 403.037 209.608 403.198C204.128 405.084 198.361 406.005 192.566 405.919ZM181.781 379.205C185.757 380.097 194.911 381.434 200.877 379.257C208.456 376.493 246.839 356.589 282.707 316.225C332.264 260.456 357.41 190.35 357.446 107.854C357.358 106.182 356.171 94.2618 340.385 86.745C316.659 75.4467 200.281 27.8601 199.109 27.3805L198.787 27.2442C196.348 26.2222 188.586 24.0695 183.236 26.8732L182.165 27.3726C180.868 27.9054 52.3018 80.7102 38.5902 86.4233C28.9985 90.4198 25.581 100.321 25.581 108.254C25.581 108.833 25.566 109.677 25.5448 110.767C24.4489 167.214 37.5112 306.113 181.781 379.205Z" fill="#3F3D56"/>
<path d="M177.324 15.5864C177.324 15.5864 47.5893 68.8702 33.6892 74.6619C19.789 80.4536 12.839 94.3538 12.839 108.254C12.839 122.154 2.41389 303.532 177.324 391.228C177.324 391.228 193.199 395.62 205.243 391.228C217.287 386.836 370.188 312.702 370.188 107.675C370.188 107.675 370.188 86.8245 345.863 75.2411C321.538 63.6577 203.929 15.5864 203.929 15.5864C203.929 15.5864 189.486 9.2155 177.324 15.5864Z" fill="#F47059"/>
<path opacity="0.1" d="M191.224 57.2861V341.536C191.224 341.536 60.3312 278.53 61.4896 112.887L191.224 57.2861Z" fill="black"/>
<path d="M192.931 261.581L151.235 207.969L175.483 189.11L195.226 214.494L261.921 144.088L284.224 165.219L192.931 261.581Z" fill="white"/>
<path d="M818.07 584H437.07C436.805 584 436.551 583.895 436.363 583.707C436.176 583.52 436.07 583.265 436.07 583C436.07 582.735 436.176 582.48 436.363 582.293C436.551 582.105 436.805 582 437.07 582H818.07C818.336 582 818.59 582.105 818.777 582.293C818.965 582.48 819.07 582.735 819.07 583C819.07 583.265 818.965 583.52 818.777 583.707C818.59 583.895 818.336 584 818.07 584Z" fill="#CACACA"/>
<path d="M547.206 568.237L562.671 568.236L570.029 508.583L547.203 508.584L547.206 568.237Z" fill="#FFB8B8"/>
<path d="M543.261 563.188L573.718 563.187H573.72C578.867 563.187 583.804 565.232 587.444 568.872C591.084 572.512 593.129 577.448 593.13 582.596V583.227L543.262 583.229L543.261 563.188Z" fill="#2F2E41"/>
<path d="M599.206 568.237L614.671 568.236L622.029 508.583L599.203 508.584L599.206 568.237Z" fill="#FFB8B8"/>
<path d="M595.261 563.188L625.718 563.187H625.72C630.867 563.187 635.804 565.232 639.444 568.872C643.084 572.512 645.129 577.448 645.13 582.596V583.227L595.262 583.229L595.261 563.188Z" fill="#2F2E41"/>
<path d="M571.514 358.75L575.224 548L545.213 546.139L524.393 425.597L517.817 343.408L571.514 358.75Z" fill="#2F2E41"/>
<path d="M623.019 326.97L627.224 551L592.224 550L584.664 416.829L571.514 368.612L517.818 343.408L526.585 283.137L605.485 282.041L623.019 326.97Z" fill="#2F2E41"/>
<path d="M562.676 126.432C577.498 126.432 589.514 114.416 589.514 99.5941C589.514 84.7718 577.498 72.7559 562.676 72.7559C547.853 72.7559 535.837 84.7718 535.837 99.5941C535.837 114.416 547.853 126.432 562.676 126.432Z" fill="#FFB8B8"/>
<path d="M584.936 137.738L589.047 143.966L600.006 174.649L591.239 294.095L539.734 295.192L533.16 158.211L546.933 140.995L584.936 137.738Z" fill="#CCCCCC"/>
<path d="M512.338 161.499L503.571 160.403C503.571 160.403 501.38 161.499 500.284 169.17C499.188 176.841 486.038 244.783 486.038 244.783L503.571 328.067L523.297 301.767L511.242 255.741L523.297 209.716L512.338 161.499Z" fill="#2F2E41"/>
<path d="M624.114 160.404H630.689L647.127 249.166L631.785 318.204L616.443 293L620.826 265.604L618.635 241.496L610.964 227.249L624.114 160.404Z" fill="#2F2E41"/>
<path d="M578.535 99.5939L573.655 98.374C573.655 98.374 569.995 77.6353 561.456 80.0751C552.916 82.515 530.958 84.9548 530.958 75.1954C530.958 65.436 551.697 56.8966 563.896 58.1165C576.095 59.3365 591.675 63.3835 595.614 81.295C601.927 110.008 582.587 117.26 582.587 117.26L582.909 116.215C583.803 113.312 583.867 110.217 583.094 107.28C582.321 104.343 580.742 101.681 578.535 99.5939V99.5939Z" fill="#2F2E41"/>
<path d="M504.667 160.403L539.734 146.157L547.953 140.13L572.61 249.166L584.116 136.843L629.593 160.403L614.251 234.92L612.06 263.412L618.635 286.425C618.635 286.425 641.647 302.863 633.977 320.396C626.306 337.929 617.539 339.025 617.539 339.025C617.539 339.025 580.28 303.958 578.089 295.192C575.897 286.425 572.61 271.083 572.61 271.083C572.61 271.083 553.98 341.217 532.064 340.121C510.147 339.025 510.147 316.013 510.147 316.013L515.626 291.904L524.393 266.7L520.009 225.058L504.667 160.403Z" fill="#2F2E41"/>
</g>
<defs>
<clipPath id="clip0_10_24">
<rect width="819.07" height="584" fill="white"/>
</clipPath>
</defs>
</svg>
